<svg id="svg" version="1.1" xmlns="http://www.w3.org/2000/svg" xmlns:xlink="http://www.w3.org/1999/xlink" width="400" height="400" viewBox="0, 0, 400,400"><g id="svgg"><path id="path0" d="M144.400 76.174 C 140.794 76.845,140.218 77.075,138.778 78.420 C 138.084 79.069,137.270 79.600,136.969 79.600 C 135.595 79.600,132.092 81.606,130.800 83.132 C 130.031 84.041,128.933 84.979,128.361 85.216 C 127.789 85.453,126.947 86.311,126.489 87.123 C 126.032 87.936,125.082 89.140,124.378 89.800 C 123.086 91.012,121.211 94.460,121.204 95.638 C 121.202 95.989,120.822 96.618,120.359 97.037 C 117.237 99.863,117.400 94.237,117.400 199.000 C 117.400 299.246,117.353 296.832,119.359 300.000 C 120.485 301.777,121.805 304.669,122.157 306.127 C 122.311 306.767,122.927 307.540,123.583 307.916 C 124.218 308.280,125.018 309.168,125.361 309.888 C 125.705 310.608,126.683 311.693,127.536 312.299 C 128.388 312.904,129.517 313.980,130.043 314.689 C 130.569 315.398,131.228 315.983,131.507 315.989 C 131.785 315.995,132.775 316.780,133.707 317.734 C 135.221 319.284,135.712 319.524,138.350 320.007 C 140.069 320.322,141.822 320.927,142.550 321.456 C 145.408 323.534,145.833 323.600,158.976 324.006 C 166.568 324.240,184.778 324.260,205.800 324.057 L 240.200 323.725 242.400 322.563 C 245.072 321.150,247.093 320.414,248.317 320.406 C 250.702 320.390,255.449 319.091,256.400 318.194 C 256.950 317.675,258.570 316.720,260.000 316.072 C 261.430 315.423,262.994 314.515,263.476 314.053 C 264.741 312.841,267.082 311.600,268.112 311.597 C 268.727 311.595,269.280 311.104,269.909 310.003 C 270.408 309.128,271.390 308.116,272.089 307.754 C 273.466 307.042,273.967 306.579,274.627 305.410 C 274.861 304.994,275.401 304.461,275.825 304.227 C 277.840 303.112,278.800 302.288,278.800 301.673 C 278.801 300.897,280.489 298.800,281.113 298.800 C 281.345 298.800,281.855 297.960,282.247 296.934 C 282.639 295.907,283.509 294.512,284.180 293.834 C 285.779 292.217,286.517 290.993,287.214 288.800 C 287.528 287.810,288.228 286.501,288.768 285.890 C 289.971 284.530,290.526 282.967,291.401 278.472 C 291.772 276.562,292.535 274.204,293.096 273.231 C 295.716 268.682,295.786 245.672,293.193 240.931 C 292.499 239.663,291.799 237.419,291.383 235.131 C 290.609 230.878,290.062 229.451,288.619 227.917 C 288.058 227.322,287.600 226.568,287.600 226.241 C 287.600 225.914,287.420 225.536,287.200 225.400 C 286.980 225.264,286.800 224.706,286.800 224.160 C 286.800 223.132,286.628 222.862,284.582 220.692 C 283.912 219.981,282.879 218.410,282.287 217.200 C 281.694 215.990,280.487 214.405,279.605 213.677 C 278.722 212.950,278.000 212.007,278.000 211.582 C 278.000 211.114,277.360 210.406,276.374 209.783 C 275.479 209.219,274.390 208.151,273.953 207.410 C 273.516 206.670,272.644 205.885,272.016 205.665 C 267.614 204.131,265.329 198.476,268.208 196.238 C 269.083 195.557,270.342 194.460,271.004 193.800 C 271.666 193.140,273.064 191.910,274.112 191.067 C 275.159 190.224,277.309 187.974,278.890 186.067 C 280.472 184.160,281.873 182.510,282.005 182.400 C 282.137 182.290,282.485 181.608,282.778 180.883 C 283.071 180.159,283.892 179.079,284.602 178.483 C 285.312 177.888,286.119 176.680,286.395 175.800 C 286.671 174.920,287.055 174.029,287.248 173.820 C 287.442 173.611,287.600 173.135,287.600 172.762 C 287.600 172.390,288.138 171.509,288.795 170.805 C 289.452 170.102,290.162 168.868,290.371 168.063 C 290.907 166.008,291.525 163.247,291.818 161.600 C 292.111 159.954,292.888 158.000,293.249 158.000 C 295.772 158.000,295.625 129.758,293.081 125.728 C 292.517 124.835,291.933 123.406,291.783 122.552 C 290.856 117.286,289.980 114.463,288.918 113.313 C 287.914 112.227,286.000 108.041,286.000 106.932 C 286.000 106.691,285.409 106.044,284.686 105.493 C 283.964 104.942,282.945 103.660,282.423 102.645 C 281.901 101.630,281.328 100.800,281.150 100.800 C 280.971 100.800,280.065 99.771,279.136 98.514 C 276.978 95.592,273.924 92.631,272.432 92.013 C 271.792 91.748,271.060 91.028,270.806 90.414 C 270.524 89.733,269.577 88.879,268.384 88.230 C 267.307 87.644,265.894 86.632,265.244 85.982 C 264.593 85.332,263.811 84.800,263.506 84.800 C 262.418 84.800,258.888 82.830,258.143 81.806 C 257.547 80.989,256.871 80.688,254.992 80.403 C 251.531 79.879,249.774 79.293,248.512 78.243 C 245.463 75.703,243.094 75.594,191.932 75.645 C 158.641 75.678,146.326 75.815,144.400 76.174 M158.501 94.962 C 161.905 95.562,163.403 96.329,164.082 97.821 C 164.328 98.360,164.745 98.800,165.010 98.800 C 165.809 98.800,167.376 100.624,167.957 102.232 C 168.258 103.065,168.856 104.118,169.286 104.573 C 171.342 106.748,171.400 107.122,171.400 118.090 L 171.400 128.379 170.290 129.490 L 169.181 130.600 158.690 130.600 C 144.714 130.600,145.239 130.770,139.602 124.437 C 137.208 121.747,136.043 119.849,136.017 118.594 C 136.008 118.151,135.640 117.116,135.200 116.296 C 134.248 114.519,134.140 111.296,134.971 109.460 C 135.285 108.767,135.870 107.030,136.271 105.600 C 136.893 103.380,137.366 102.629,139.500 100.465 C 140.875 99.070,142.000 97.780,142.000 97.597 C 142.000 95.359,151.838 93.788,158.501 94.962 M237.555 94.832 C 243.548 95.389,245.272 95.836,246.845 97.240 C 247.552 97.871,248.416 98.462,248.765 98.554 C 252.820 99.620,253.513 99.928,254.853 101.261 C 255.660 102.064,256.744 102.853,257.261 103.015 C 258.224 103.316,260.400 105.331,260.400 105.923 C 260.400 106.104,261.122 106.658,262.004 107.154 C 262.886 107.650,263.859 108.538,264.165 109.128 C 264.471 109.718,265.279 110.610,265.960 111.112 C 266.642 111.613,267.473 112.678,267.807 113.479 C 268.141 114.279,269.042 115.542,269.808 116.286 C 270.573 117.030,271.200 117.954,271.200 118.339 C 271.200 118.725,271.347 119.211,271.527 119.420 C 271.707 119.629,272.090 120.771,272.379 121.958 C 272.685 123.216,273.355 124.588,273.985 125.248 C 276.596 127.979,277.710 142.781,276.014 152.200 C 275.816 153.300,275.542 155.043,275.406 156.072 C 275.238 157.346,274.809 158.306,274.064 159.072 C 273.462 159.693,272.775 160.830,272.538 161.600 C 272.302 162.370,271.870 163.781,271.578 164.736 C 271.287 165.691,270.452 167.068,269.724 167.796 C 268.996 168.524,268.400 169.335,268.400 169.598 C 268.400 170.950,260.454 179.353,258.000 180.596 C 257.230 180.986,256.150 181.825,255.600 182.460 C 255.008 183.143,253.622 183.953,252.204 184.444 C 249.385 185.421,248.482 185.860,247.400 186.780 C 246.402 187.628,244.065 188.304,241.200 188.572 C 239.990 188.686,236.840 188.986,234.200 189.240 C 226.988 189.932,194.061 189.459,192.478 188.640 C 190.031 187.375,189.999 187.188,190.015 174.314 C 190.047 148.933,189.766 149.600,200.442 149.600 C 209.408 149.600,209.888 149.751,213.800 153.809 C 216.048 156.141,217.688 157.452,219.315 158.218 C 220.588 158.817,221.791 159.609,221.988 159.977 C 222.988 161.846,235.221 161.826,235.814 159.955 C 236.033 159.266,238.270 158.000,239.269 158.000 C 239.570 158.000,240.205 157.595,240.680 157.100 C 244.264 153.363,245.200 152.217,245.200 151.567 C 245.200 150.905,245.747 149.530,247.884 144.825 C 248.886 142.619,248.378 136.842,247.026 135.070 C 246.462 134.330,245.998 133.471,245.996 133.162 C 245.984 131.472,243.932 128.416,241.067 125.821 C 236.800 121.957,236.522 121.862,229.400 121.828 C 221.961 121.793,220.084 122.251,217.715 124.675 C 216.788 125.624,215.698 126.400,215.292 126.400 C 214.818 126.400,214.307 126.959,213.866 127.960 C 212.670 130.671,211.802 130.860,201.227 130.721 L 192.064 130.600 191.032 129.400 L 190.001 128.200 190.000 119.477 C 190.000 110.918,189.978 110.685,188.821 107.077 C 186.426 99.608,186.313 97.184,188.275 95.366 L 189.317 94.400 211.114 94.400 C 223.581 94.400,234.899 94.585,237.555 94.832 M154.200 149.569 C 167.263 149.931,168.701 150.098,169.600 151.357 C 171.317 153.760,171.298 153.275,171.492 199.850 L 171.677 244.301 170.472 245.650 L 169.266 247.000 159.533 247.245 C 150.235 247.480,147.486 247.724,146.600 248.396 C 143.210 250.966,136.160 250.864,134.306 248.219 C 133.666 247.306,133.951 152.455,134.598 151.204 C 135.642 149.184,136.676 148.728,139.600 148.997 C 141.030 149.129,147.600 149.386,154.200 149.569 M237.800 208.839 C 238.900 209.147,240.100 209.652,240.466 209.960 C 241.354 210.706,243.941 211.586,245.267 211.594 C 246.669 211.602,249.955 213.026,250.788 213.986 C 251.150 214.403,252.246 215.044,253.223 215.410 C 256.089 216.482,256.958 216.946,257.693 217.797 C 258.074 218.239,258.544 218.780,258.739 219.000 C 258.933 219.220,259.515 219.670,260.031 220.000 C 261.180 220.735,262.805 222.338,263.570 223.491 C 263.884 223.963,264.696 224.649,265.376 225.015 C 266.066 225.386,266.962 226.402,267.406 227.313 C 267.843 228.212,268.871 229.789,269.691 230.819 C 270.549 231.898,271.424 233.606,271.753 234.846 C 272.508 237.698,273.058 239.065,273.578 239.387 C 274.928 240.221,275.484 242.476,276.591 251.600 C 277.592 259.850,275.959 272.636,273.628 274.800 C 272.807 275.562,272.000 277.387,272.000 278.484 C 272.000 279.403,270.251 282.634,269.231 283.600 C 268.882 283.930,268.230 284.918,267.781 285.796 C 267.333 286.673,266.368 287.794,265.637 288.286 C 264.907 288.779,264.005 289.749,263.633 290.443 C 263.261 291.137,262.261 292.094,261.410 292.570 C 260.560 293.046,259.670 293.785,259.432 294.212 C 258.774 295.395,257.171 296.721,256.062 296.999 C 255.515 297.136,254.306 297.919,253.376 298.738 C 252.264 299.716,250.948 300.407,249.542 300.751 C 246.354 301.530,244.670 302.108,244.000 302.654 C 243.670 302.923,242.500 303.557,241.400 304.063 L 239.400 304.982 214.957 304.985 C 188.118 304.988,188.496 305.021,187.176 302.555 C 186.688 301.643,187.206 296.050,187.950 294.200 C 189.472 290.417,189.672 289.115,190.045 280.600 C 190.465 271.036,190.746 269.331,192.160 267.806 L 193.092 266.800 201.046 266.840 C 210.691 266.888,210.072 266.716,213.889 270.418 C 217.313 273.738,218.888 274.942,220.400 275.393 C 220.950 275.558,221.760 276.001,222.200 276.378 C 224.760 278.573,233.014 278.507,235.626 276.271 C 236.073 275.887,237.426 275.205,238.632 274.753 C 240.008 274.239,241.073 273.536,241.491 272.866 C 241.857 272.280,242.841 271.159,243.678 270.376 C 244.519 269.589,245.200 268.571,245.200 268.100 C 245.200 267.631,245.943 265.669,246.851 263.740 C 248.919 259.346,248.998 254.547,247.050 251.604 C 246.472 250.731,246.000 249.838,246.000 249.619 C 246.000 248.652,243.530 243.949,242.899 243.714 C 242.514 243.571,241.390 242.659,240.400 241.686 C 235.913 237.280,220.883 236.605,218.241 240.692 C 217.778 241.407,216.635 242.355,215.700 242.798 C 214.765 243.242,214.000 243.828,214.000 244.102 C 213.999 244.376,213.535 245.140,212.968 245.800 L 211.936 247.000 202.147 247.120 L 192.358 247.240 191.179 245.978 L 190.000 244.715 190.019 228.658 C 190.044 207.598,189.477 208.775,199.800 208.357 C 210.989 207.904,235.582 208.216,237.800 208.839 M168.684 267.586 C 170.771 268.858,171.196 271.107,171.306 281.461 C 171.402 290.448,171.298 291.239,169.766 293.200 C 169.508 293.530,168.630 295.100,167.816 296.689 C 166.517 299.223,166.055 299.738,164.067 300.872 C 162.820 301.584,161.569 302.353,161.286 302.583 C 161.003 302.812,160.553 303.182,160.286 303.405 C 157.409 305.799,145.253 305.151,145.202 302.600 C 145.194 302.199,143.377 301.200,142.656 301.200 C 142.166 301.200,140.005 298.796,139.985 298.228 C 139.976 297.993,139.399 297.440,138.703 297.000 C 137.751 296.399,137.208 295.554,136.519 293.600 C 136.015 292.170,135.432 290.640,135.224 290.200 C 134.056 287.725,134.046 284.213,135.203 282.600 C 135.361 282.380,135.611 281.660,135.759 281.000 C 136.354 278.352,137.670 275.697,138.596 275.274 C 139.117 275.037,140.248 273.888,141.111 272.722 C 142.383 271.000,143.086 270.455,144.839 269.833 C 146.028 269.411,147.100 268.918,147.221 268.736 C 148.609 266.673,165.686 265.758,168.684 267.586 " stroke="none" fill="#efba0e" fill-rule="evenodd"></path><path id="path1" d="M149.800 72.652 C 148.480 72.964,146.320 73.390,145.000 73.599 C 140.176 74.364,135.600 75.901,135.600 76.756 C 135.600 76.940,134.487 77.590,133.126 78.201 C 130.827 79.233,128.154 81.364,125.644 84.166 C 125.070 84.808,123.839 86.085,122.910 87.005 C 121.362 88.538,119.213 92.301,119.204 93.497 C 119.202 93.770,118.686 94.490,118.058 95.097 C 116.715 96.394,116.241 97.791,115.582 102.400 C 115.315 104.270,114.850 106.936,114.548 108.325 C 113.724 112.120,113.733 286.362,114.558 290.321 C 114.864 291.794,115.320 294.260,115.570 295.800 C 116.499 301.526,116.885 302.737,118.261 304.239 C 118.998 305.043,119.601 305.993,119.601 306.350 C 119.604 307.245,120.851 309.210,122.673 311.188 C 125.328 314.071,129.785 318.400,130.097 318.400 C 130.262 318.400,131.073 319.006,131.899 319.746 C 132.873 320.621,134.452 321.419,136.400 322.023 C 138.050 322.535,140.034 323.456,140.808 324.070 C 143.315 326.057,144.191 326.097,188.937 326.274 C 239.813 326.475,246.634 326.129,248.800 323.241 C 249.001 322.972,250.895 322.494,255.500 321.548 C 257.283 321.182,258.430 320.660,259.500 319.725 C 260.325 319.005,261.219 318.412,261.486 318.408 C 262.267 318.395,265.728 316.406,266.607 315.465 C 267.051 314.989,268.276 314.177,269.329 313.661 C 270.416 313.128,271.623 312.136,272.122 311.366 C 272.605 310.620,273.222 310.008,273.493 310.005 C 273.764 310.002,274.844 309.177,275.893 308.172 C 276.942 307.166,278.385 305.897,279.100 305.352 C 279.815 304.806,280.400 304.083,280.400 303.746 C 280.400 303.408,281.048 302.562,281.839 301.866 C 282.630 301.170,283.692 299.790,284.199 298.800 C 284.706 297.810,285.572 296.611,286.123 296.135 C 286.675 295.659,287.709 294.039,288.422 292.535 C 289.136 291.031,290.112 289.401,290.592 288.913 C 291.400 288.092,292.000 286.404,293.228 281.500 C 293.490 280.455,293.830 279.600,293.984 279.600 C 297.210 279.600,298.440 245.035,295.499 237.000 C 295.258 236.340,294.765 235.350,294.405 234.800 C 294.044 234.250,293.523 232.990,293.247 232.000 C 292.012 227.574,291.418 226.122,290.383 225.000 C 289.774 224.340,289.018 223.022,288.702 222.072 C 288.387 221.121,287.819 219.981,287.440 219.538 C 286.054 217.920,284.000 214.893,284.000 214.469 C 284.000 214.230,283.364 213.531,282.586 212.917 C 281.809 212.303,280.731 211.051,280.190 210.135 C 279.649 209.219,278.620 208.106,277.904 207.662 C 277.187 207.218,276.273 206.300,275.873 205.621 C 275.470 204.936,274.293 203.954,273.229 203.415 C 271.670 202.625,271.264 202.196,271.059 201.122 C 270.919 200.395,270.698 199.331,270.567 198.759 C 270.359 197.847,270.556 197.585,272.151 196.650 C 273.153 196.063,274.429 194.985,274.985 194.255 C 275.542 193.524,276.615 192.595,277.369 192.189 C 278.123 191.783,278.932 191.027,279.168 190.510 C 279.641 189.473,279.864 189.187,282.223 186.609 C 283.116 185.633,284.271 183.930,284.789 182.824 C 285.307 181.717,286.035 180.716,286.406 180.598 C 286.777 180.480,287.635 179.263,288.312 177.892 C 288.989 176.521,289.973 174.948,290.499 174.396 C 291.432 173.416,291.756 172.520,293.100 167.200 C 293.461 165.770,293.965 164.471,294.219 164.313 C 296.218 163.074,297.000 156.855,297.000 142.200 C 297.000 126.682,296.510 122.786,294.208 120.000 C 293.935 119.670,293.224 117.510,292.627 115.200 C 291.936 112.525,291.210 110.637,290.628 110.000 C 289.745 109.034,289.104 107.934,287.951 105.400 C 287.417 104.226,286.136 102.800,285.616 102.800 C 285.472 102.800,285.026 102.057,284.625 101.148 C 284.224 100.240,283.238 98.838,282.434 98.034 C 281.629 97.229,280.581 95.939,280.104 95.167 C 278.875 93.180,278.053 92.351,276.000 91.033 C 275.010 90.397,273.335 89.004,272.278 87.938 C 271.221 86.872,270.097 86.000,269.781 86.000 C 269.465 86.000,268.710 85.439,268.103 84.753 C 267.496 84.066,266.010 83.037,264.800 82.465 C 263.590 81.893,262.240 81.092,261.800 80.686 C 260.728 79.696,259.054 78.974,256.400 78.357 C 255.190 78.076,253.300 77.276,252.200 76.580 C 249.989 75.181,248.171 74.651,243.400 74.015 C 241.640 73.781,238.400 73.285,236.200 72.915 C 230.596 71.971,153.678 71.737,149.800 72.652 M235.400 74.022 C 244.710 74.916,248.478 75.617,250.192 76.772 C 251.959 77.963,253.189 78.467,256.200 79.232 C 257.300 79.511,259.344 80.457,260.743 81.333 C 262.141 82.209,263.966 83.302,264.798 83.763 C 266.993 84.977,269.949 87.163,271.880 89.000 C 273.835 90.859,274.185 91.142,275.800 92.170 C 277.114 93.006,278.141 94.060,279.143 95.600 C 279.979 96.885,280.337 97.338,281.813 98.979 C 282.480 99.721,283.290 100.826,283.613 101.436 C 283.936 102.046,284.761 103.098,285.447 103.773 C 286.132 104.448,287.292 106.260,288.024 107.800 C 288.755 109.340,289.478 110.690,289.630 110.800 C 290.269 111.262,291.571 114.051,291.810 115.470 C 292.206 117.823,292.772 119.580,293.979 122.200 C 297.534 129.917,297.592 153.836,294.074 161.600 C 293.526 162.810,292.937 164.340,292.765 165.000 C 292.593 165.660,292.202 167.190,291.895 168.400 C 291.369 170.482,290.199 173.163,289.626 173.600 C 289.165 173.952,287.600 176.828,287.600 177.323 C 287.600 177.586,286.875 178.593,285.989 179.563 C 285.103 180.532,284.093 181.926,283.744 182.661 C 283.395 183.396,282.545 184.619,281.855 185.379 C 281.165 186.138,280.241 187.264,279.803 187.880 C 278.329 189.952,272.396 195.473,270.313 196.711 C 268.817 197.600,268.734 198.032,269.605 200.413 C 270.381 202.536,270.910 203.136,273.000 204.263 C 273.660 204.619,274.470 205.272,274.800 205.713 C 275.685 206.896,276.929 208.121,277.925 208.789 C 278.408 209.113,278.913 209.726,279.048 210.151 C 279.183 210.575,280.131 211.750,281.156 212.761 C 282.181 213.773,283.328 215.253,283.705 216.051 C 284.082 216.849,285.076 218.330,285.912 219.343 C 286.749 220.355,287.670 221.862,287.959 222.692 C 288.248 223.521,288.965 224.830,289.553 225.600 C 290.920 227.391,291.380 228.468,292.224 231.851 C 292.601 233.363,293.365 235.590,293.920 236.800 C 296.037 241.410,297.159 253.115,296.431 263.000 C 295.794 271.654,295.447 273.409,293.429 278.200 C 292.686 279.963,292.085 281.988,291.769 283.800 C 291.615 284.680,290.900 286.300,290.180 287.400 C 289.460 288.500,288.395 290.412,287.813 291.649 C 287.231 292.886,286.360 294.314,285.877 294.822 C 285.395 295.330,284.280 296.784,283.400 298.051 C 280.530 302.186,278.540 304.590,277.551 305.119 C 277.017 305.405,276.248 306.134,275.841 306.739 C 275.435 307.344,274.404 308.240,273.551 308.731 C 272.698 309.222,272.000 309.754,272.000 309.912 C 271.999 310.471,270.185 312.213,269.000 312.791 C 268.340 313.114,266.720 314.111,265.400 315.007 C 264.080 315.903,262.460 316.896,261.800 317.214 C 261.140 317.532,259.700 318.349,258.600 319.028 C 256.666 320.224,255.473 320.623,250.800 321.639 C 249.590 321.902,247.520 322.617,246.200 323.228 C 241.927 325.204,242.461 325.183,193.600 325.295 C 143.873 325.408,144.190 325.420,141.807 323.373 C 141.221 322.868,139.719 322.158,138.470 321.795 C 134.123 320.529,134.308 320.649,127.746 314.835 C 125.906 313.204,124.400 311.754,124.400 311.613 C 124.400 311.472,123.750 310.647,122.956 309.780 C 122.162 308.913,120.969 307.123,120.306 305.802 C 119.642 304.481,118.795 302.950,118.424 302.400 C 117.300 300.734,116.633 297.687,115.595 289.471 C 115.078 285.380,115.054 111.789,115.570 108.767 C 115.773 107.575,116.146 105.160,116.397 103.400 C 117.022 99.031,117.455 97.507,118.339 96.558 C 118.753 96.114,119.386 95.086,119.746 94.275 C 120.106 93.464,120.689 92.148,121.042 91.350 C 121.395 90.553,122.470 89.093,123.430 88.105 C 124.389 87.118,125.270 86.010,125.386 85.644 C 125.502 85.278,125.988 84.713,126.466 84.389 C 126.944 84.065,128.288 82.952,129.454 81.916 C 130.619 80.880,132.421 79.646,133.458 79.174 C 134.495 78.701,136.181 77.738,137.205 77.034 C 139.090 75.737,142.474 74.834,148.400 74.045 C 152.271 73.529,230.062 73.509,235.400 74.022 M146.972 96.641 C 144.540 97.504,139.431 102.617,138.224 105.396 C 135.495 111.677,136.459 118.179,140.874 123.268 C 141.678 124.195,142.966 125.861,143.600 126.794 C 145.311 129.313,162.095 130.783,167.400 128.879 L 169.400 128.161 169.400 118.581 C 169.400 109.313,169.369 108.935,168.447 107.000 C 167.923 105.900,167.159 104.224,166.750 103.275 C 166.014 101.567,165.128 100.400,164.567 100.400 C 164.407 100.400,163.581 99.669,162.732 98.776 C 160.228 96.145,151.647 94.982,146.972 96.641 M189.300 96.777 C 187.980 97.878,188.052 98.508,190.011 103.000 C 191.180 105.682,191.600 109.947,191.600 119.149 L 191.600 127.946 192.762 128.773 C 193.832 129.535,194.473 129.599,200.862 129.583 C 210.350 129.559,211.470 129.297,212.800 126.792 C 213.090 126.246,213.643 125.575,214.030 125.301 C 214.416 125.027,215.635 124.032,216.738 123.090 C 218.308 121.750,219.294 121.263,221.272 120.853 C 222.662 120.565,224.322 120.165,224.960 119.965 C 229.335 118.588,237.895 120.449,241.361 123.529 C 242.518 124.558,243.845 125.657,244.310 125.972 C 244.774 126.286,245.800 127.906,246.589 129.572 C 247.377 131.237,248.409 133.230,248.880 134.000 C 249.646 135.250,249.738 135.982,249.739 140.843 C 249.740 146.558,249.812 146.243,247.505 150.600 C 247.155 151.260,246.543 152.475,246.144 153.299 C 245.102 155.454,242.906 157.701,240.600 158.973 C 239.500 159.580,238.240 160.382,237.800 160.756 C 235.870 162.397,234.849 162.600,228.639 162.585 C 221.846 162.567,220.180 162.008,216.471 158.500 C 216.181 158.225,215.766 158.000,215.549 158.000 C 215.333 158.000,214.118 156.899,212.849 155.553 C 209.715 152.229,208.956 152.013,200.400 152.009 L 193.400 152.005 192.600 153.303 C 191.320 155.379,191.127 185.529,192.387 186.702 C 193.410 187.655,201.140 188.014,219.764 187.974 C 237.142 187.937,244.582 187.179,245.974 185.304 C 246.318 184.840,247.967 184.104,250.341 183.356 C 251.519 182.985,252.870 182.303,253.343 181.840 C 253.817 181.378,255.193 180.338,256.402 179.530 C 259.913 177.181,265.623 171.319,267.018 168.631 C 267.340 168.010,268.113 166.921,268.736 166.212 C 269.756 165.050,270.687 162.822,271.343 159.971 C 271.473 159.405,272.007 158.312,272.530 157.542 C 273.052 156.772,273.577 155.705,273.696 155.171 C 276.092 144.435,275.796 134.427,272.884 127.790 C 272.211 126.255,271.180 123.569,270.594 121.821 C 269.949 119.899,268.988 118.012,268.164 117.049 C 267.414 116.173,266.800 115.296,266.800 115.099 C 266.800 114.903,266.575 114.507,266.300 114.219 C 266.025 113.931,265.080 112.852,264.200 111.821 C 263.320 110.790,262.247 109.643,261.815 109.273 C 261.383 108.903,259.980 107.565,258.698 106.300 C 257.415 105.035,256.136 104.000,255.855 104.000 C 255.574 104.000,254.637 103.397,253.772 102.659 C 252.907 101.922,251.480 101.089,250.600 100.809 C 248.178 100.038,245.200 98.699,245.200 98.380 C 245.200 97.905,243.161 97.224,239.865 96.597 C 234.565 95.588,190.537 95.746,189.300 96.777 M158.394 97.181 C 159.694 97.432,160.520 97.909,161.394 98.917 C 162.057 99.681,163.104 100.624,163.720 101.012 C 165.010 101.825,165.552 102.781,166.774 106.400 C 167.257 107.830,167.866 109.432,168.126 109.960 C 168.445 110.606,168.600 113.615,168.600 119.139 L 168.600 127.358 166.600 128.099 C 162.217 129.723,147.809 128.705,145.359 126.598 C 144.722 126.050,144.082 125.601,143.938 125.600 C 143.793 125.600,143.118 124.758,142.436 123.728 C 141.754 122.699,140.595 121.207,139.859 120.412 C 138.932 119.410,138.444 118.421,138.265 117.184 C 138.123 116.203,137.891 114.790,137.750 114.044 C 137.181 111.041,138.621 105.751,140.500 103.940 C 141.105 103.356,141.600 102.700,141.600 102.481 C 141.600 101.900,146.858 97.332,147.800 97.095 C 149.149 96.754,156.493 96.814,158.394 97.181 M241.500 97.605 C 242.215 97.919,242.800 98.316,242.800 98.488 C 242.800 98.659,242.997 98.800,243.238 98.800 C 243.479 98.800,244.154 99.136,244.738 99.547 C 245.322 99.958,247.149 100.717,248.798 101.234 C 250.653 101.815,252.205 102.591,252.867 103.268 C 253.455 103.870,254.587 104.635,255.382 104.967 C 256.985 105.636,257.715 106.258,258.103 107.283 C 258.245 107.659,259.085 108.423,259.969 108.981 C 260.854 109.539,261.850 110.522,262.183 111.166 C 262.516 111.810,263.338 112.729,264.010 113.207 C 264.682 113.686,265.585 114.825,266.016 115.739 C 266.448 116.652,267.302 117.940,267.915 118.600 C 269.074 119.848,270.400 122.846,270.400 124.219 C 270.400 125.351,271.775 128.959,272.709 130.279 C 274.958 133.455,274.885 149.347,272.600 154.200 C 271.412 156.721,270.688 158.709,269.759 162.000 C 269.299 163.629,268.673 164.881,268.082 165.353 C 267.564 165.767,266.694 167.046,266.150 168.196 C 265.606 169.345,264.739 170.512,264.224 170.787 C 263.709 171.063,263.043 171.763,262.744 172.344 C 262.019 173.751,260.842 174.894,259.500 175.492 C 258.895 175.762,258.400 176.159,258.400 176.375 C 258.400 176.947,256.303 178.800,255.657 178.800 C 255.354 178.800,254.383 179.523,253.500 180.406 C 252.617 181.289,251.423 182.120,250.847 182.253 C 248.284 182.843,245.842 183.783,244.494 184.698 C 241.447 186.766,241.110 186.791,216.631 186.796 C 196.003 186.800,193.794 186.738,193.131 186.138 C 192.040 185.150,192.007 157.313,193.094 154.803 L 193.789 153.200 200.079 153.200 C 207.544 153.200,210.342 153.823,211.727 155.795 C 212.868 157.419,213.145 157.674,215.000 158.808 C 215.880 159.346,217.230 160.342,218.000 161.021 C 222.192 164.720,235.711 164.835,239.000 161.200 C 239.417 160.739,240.397 160.062,241.179 159.694 C 243.879 158.425,246.151 156.181,246.806 154.137 C 247.077 153.292,247.772 151.972,248.350 151.204 C 250.506 148.338,250.536 148.199,250.541 141.200 C 250.546 134.148,250.304 133.001,248.333 130.713 C 247.818 130.115,247.079 128.731,246.691 127.638 C 246.275 126.466,245.678 125.552,245.237 125.412 C 244.826 125.281,243.401 124.122,242.070 122.836 C 240.740 121.550,239.144 120.395,238.525 120.270 C 237.906 120.144,236.320 119.840,235.000 119.595 C 233.680 119.350,232.220 118.963,231.755 118.736 C 230.357 118.053,225.189 118.732,219.224 120.381 C 218.185 120.668,216.862 121.458,216.035 122.285 C 215.258 123.062,214.193 123.979,213.670 124.322 C 213.146 124.665,212.300 125.608,211.789 126.418 C 210.518 128.431,208.781 128.800,200.570 128.800 C 191.747 128.800,192.404 129.584,192.387 119.039 C 192.367 107.260,191.934 103.281,190.377 100.560 C 188.972 98.105,189.038 97.340,190.676 97.078 C 193.851 96.569,240.235 97.050,241.500 97.605 M138.286 150.758 L 137.000 151.400 136.898 199.654 L 136.797 247.907 138.209 248.577 C 139.753 249.310,140.743 249.158,142.506 247.916 C 144.270 246.674,149.750 246.003,158.154 246.002 C 165.476 246.000,168.598 245.613,169.294 244.619 C 169.746 243.975,169.669 156.233,169.216 155.041 C 168.306 152.650,166.240 152.001,159.508 151.992 C 153.999 151.985,147.502 151.428,141.686 150.465 C 140.018 150.189,139.300 150.251,138.286 150.758 M144.200 151.616 C 145.740 151.870,147.360 152.277,147.800 152.521 C 148.280 152.787,151.862 153.030,156.768 153.129 C 161.260 153.220,165.130 153.445,165.368 153.630 C 165.605 153.814,166.430 154.498,167.200 155.149 L 168.600 156.334 168.600 200.204 L 168.600 244.074 167.000 244.631 C 165.837 245.036,163.160 245.190,157.200 245.194 C 147.765 245.202,144.008 245.732,141.611 247.392 C 139.415 248.914,138.674 248.554,138.080 245.674 C 137.364 242.208,137.390 152.553,138.107 151.836 C 138.807 151.136,139.654 150.858,140.600 151.019 C 141.040 151.093,142.660 151.362,144.200 151.616 M196.314 210.684 C 191.662 210.947,191.823 210.321,191.686 228.760 L 191.572 244.119 192.456 245.060 C 194.231 246.949,210.671 246.330,212.007 244.323 C 213.348 242.308,218.256 238.043,219.557 237.761 C 220.130 237.637,221.050 237.388,221.600 237.208 C 223.860 236.470,228.431 235.905,230.253 236.140 C 236.947 237.001,239.010 237.715,241.248 239.944 C 242.273 240.965,243.590 242.131,244.177 242.535 C 244.763 242.939,245.690 244.289,246.236 245.535 C 247.236 247.813,247.385 248.106,248.903 250.755 C 250.744 253.967,250.034 262.996,247.643 266.800 C 247.435 267.130,246.785 268.372,246.197 269.561 C 245.180 271.618,241.590 275.600,240.751 275.600 C 240.534 275.600,239.331 276.296,238.078 277.146 C 235.851 278.657,235.032 278.898,230.269 279.448 C 225.843 279.959,220.137 278.311,217.288 275.700 C 216.988 275.425,216.585 275.200,216.391 275.200 C 216.198 275.200,214.776 273.966,213.232 272.459 C 209.779 269.087,207.725 268.561,199.317 268.897 C 191.509 269.210,191.960 268.471,191.569 281.600 C 191.276 291.462,191.056 293.344,189.880 296.102 C 188.889 298.425,188.577 302.117,189.320 302.734 C 191.259 304.343,237.615 303.676,240.607 301.996 C 241.902 301.269,243.698 300.666,247.200 299.785 C 248.556 299.444,250.084 298.709,250.747 298.081 C 251.049 297.796,252.521 296.945,254.021 296.190 C 255.637 295.376,257.185 294.241,257.825 293.403 C 258.418 292.626,259.285 291.891,259.752 291.770 C 260.218 291.649,261.050 290.992,261.600 290.311 C 262.150 289.629,263.341 288.311,264.246 287.382 C 265.151 286.454,266.140 285.133,266.443 284.447 C 266.747 283.761,267.110 283.200,267.249 283.200 C 267.389 283.200,267.727 282.660,268.000 282.000 C 268.273 281.340,268.651 280.800,268.839 280.800 C 269.238 280.800,270.615 277.898,271.027 276.186 C 271.184 275.534,271.945 273.654,272.718 272.009 C 276.111 264.785,276.156 247.521,272.794 242.400 C 272.433 241.850,271.738 240.050,271.248 238.400 C 270.295 235.184,269.504 233.476,268.379 232.200 C 267.991 231.760,267.042 230.320,266.269 229.000 C 265.496 227.680,264.476 226.330,264.001 226.000 C 263.526 225.670,261.989 224.289,260.586 222.932 C 257.916 220.351,253.212 216.800,252.461 216.800 C 251.915 216.800,249.275 215.332,248.590 214.647 C 248.010 214.068,243.774 212.733,240.200 212.003 C 238.880 211.734,237.260 211.315,236.600 211.073 C 235.436 210.646,202.591 210.328,196.314 210.684 M239.000 212.752 C 245.046 213.979,246.346 214.388,247.450 215.412 C 248.662 216.534,250.859 217.600,251.962 217.600 C 252.646 217.600,256.672 220.752,260.200 224.049 C 261.300 225.077,262.761 226.436,263.446 227.069 C 264.131 227.702,265.280 229.295,266.001 230.610 C 266.721 231.924,267.746 233.375,268.278 233.833 C 268.971 234.430,269.525 235.737,270.227 238.433 C 270.767 240.505,271.670 243.078,272.233 244.151 C 274.805 249.046,275.131 267.368,272.682 269.400 C 272.081 269.899,271.374 271.372,270.858 273.200 C 270.640 273.970,270.180 275.599,269.836 276.821 C 269.446 278.202,268.754 279.478,268.005 280.196 C 267.342 280.830,266.800 281.586,266.800 281.875 C 266.800 282.164,266.665 282.401,266.500 282.403 C 266.175 282.407,265.210 284.297,265.185 284.980 C 265.176 285.211,264.597 285.760,263.897 286.200 C 263.198 286.640,262.233 287.700,261.753 288.555 C 261.218 289.510,260.187 290.492,259.085 291.098 C 258.098 291.641,257.112 292.475,256.895 292.951 C 256.666 293.455,255.056 294.552,253.050 295.574 C 251.153 296.541,249.600 297.460,249.600 297.617 C 249.600 298.061,248.019 298.582,242.400 299.987 C 241.410 300.234,240.240 300.582,239.800 300.759 C 234.920 302.721,234.361 302.764,213.600 302.779 C 190.835 302.795,189.821 302.729,190.228 301.241 C 190.384 300.668,190.653 299.480,190.826 298.600 C 190.998 297.720,191.334 296.280,191.572 295.400 C 191.809 294.520,192.115 289.120,192.251 283.400 C 192.440 275.447,192.638 272.694,193.095 271.700 L 193.691 270.400 200.346 270.418 C 208.741 270.440,210.171 270.787,212.721 273.419 C 214.485 275.241,216.151 276.542,219.322 278.575 C 223.380 281.177,236.839 280.812,238.916 278.045 C 239.182 277.690,239.940 277.130,240.600 276.800 C 243.357 275.422,245.836 272.869,247.021 270.192 C 247.592 268.899,248.371 267.563,248.752 267.221 C 250.247 265.880,250.600 264.034,250.600 257.561 C 250.600 251.001,250.484 250.455,248.510 247.764 C 248.011 247.085,247.393 245.915,247.135 245.164 C 246.435 243.121,245.617 242.029,244.260 241.328 C 242.824 240.585,242.249 240.049,241.899 239.123 C 241.369 237.723,239.337 236.857,234.400 235.926 C 233.190 235.698,232.029 235.351,231.820 235.156 C 231.326 234.693,226.114 234.692,225.829 235.154 C 225.708 235.348,224.791 235.631,223.789 235.781 C 220.163 236.324,217.257 237.557,215.464 239.311 C 214.515 240.240,213.257 241.424,212.669 241.942 C 212.081 242.460,211.600 243.129,211.600 243.428 C 211.600 244.689,209.866 244.993,201.872 245.134 C 191.228 245.321,192.400 247.273,192.400 229.364 C 192.400 214.275,192.521 213.058,194.094 212.398 C 195.467 211.822,235.991 212.141,239.000 212.752 M152.445 269.218 C 147.094 269.942,142.894 271.842,142.029 273.931 C 141.784 274.521,141.064 275.354,140.427 275.782 C 139.791 276.209,138.915 277.378,138.480 278.379 C 135.659 284.871,136.314 291.776,140.153 296.022 C 141.059 297.023,142.061 298.233,142.380 298.710 C 142.699 299.187,143.599 299.834,144.380 300.147 C 145.161 300.461,146.292 301.174,146.893 301.733 C 148.707 303.419,156.620 303.837,158.131 302.326 C 158.497 301.960,159.817 301.161,161.064 300.551 C 162.311 299.941,163.887 298.883,164.566 298.199 C 165.863 296.894,165.907 296.817,168.173 291.911 L 169.600 288.823 169.594 280.711 C 169.587 271.604,169.474 271.129,167.000 269.836 C 165.192 268.891,157.329 268.557,152.445 269.218 M165.686 270.900 C 168.478 272.496,168.458 272.431,168.532 280.041 C 168.603 287.316,167.948 290.585,165.451 295.421 C 164.425 297.408,160.213 300.400,158.442 300.400 C 158.199 300.400,158.000 300.541,158.000 300.714 C 158.000 302.572,152.344 303.131,149.366 301.568 C 144.767 299.154,144.035 298.800,143.638 298.800 C 143.418 298.800,142.934 298.160,142.562 297.377 C 142.191 296.595,141.311 295.515,140.607 294.978 C 136.712 292.007,136.981 280.539,141.041 276.479 C 141.810 275.710,142.689 274.482,142.995 273.749 C 143.461 272.635,143.819 272.374,145.185 272.156 C 146.083 272.012,146.914 271.739,147.032 271.547 C 147.151 271.356,147.822 271.187,148.524 271.172 C 149.226 271.156,150.160 270.989,150.600 270.800 C 151.916 270.234,164.669 270.319,165.686 270.900 " stroke="none" fill="#fae4a2" fill-rule="evenodd"></path><path id="path2" d="M146.200 70.883 C 145.540 71.113,144.402 71.748,143.671 72.293 C 142.778 72.960,141.520 73.387,139.834 73.596 C 136.745 73.979,133.600 75.315,133.326 76.361 C 133.215 76.786,132.556 77.341,131.862 77.593 C 129.344 78.508,128.589 79.032,128.000 80.270 C 127.618 81.074,127.018 81.609,126.348 81.746 C 124.966 82.028,124.016 83.018,123.723 84.483 C 123.593 85.135,123.197 85.760,122.843 85.871 C 120.556 86.589,119.898 87.405,119.380 90.164 C 119.232 90.954,118.979 91.600,118.817 91.600 C 117.369 91.600,115.627 95.159,115.135 99.122 C 114.929 100.777,114.444 102.596,114.055 103.165 C 113.169 104.464,112.508 106.662,112.001 110.000 C 111.429 113.768,111.462 283.853,112.036 288.534 C 112.454 291.944,112.790 292.989,114.434 296.000 C 114.894 296.842,115.201 298.197,115.205 299.400 C 115.216 302.452,116.058 304.725,117.730 306.213 C 118.539 306.933,119.200 307.815,119.200 308.174 C 119.200 309.561,121.187 312.616,122.680 313.525 C 123.516 314.034,124.485 315.024,124.834 315.725 C 125.183 316.426,125.874 317.205,126.370 317.455 C 126.866 317.705,128.228 318.802,129.397 319.892 C 131.180 321.555,131.929 321.960,134.049 322.410 C 135.914 322.806,136.817 323.234,137.499 324.045 C 140.068 327.098,144.165 327.310,196.000 327.063 C 246.834 326.822,249.069 326.697,251.348 323.988 C 252.050 323.154,252.708 322.800,253.554 322.800 C 257.024 322.800,261.076 321.381,262.650 319.615 C 263.202 318.996,264.442 318.268,265.406 317.998 C 267.281 317.473,268.140 316.743,268.580 315.300 C 268.782 314.635,269.159 314.400,270.020 314.400 C 270.733 314.400,271.656 313.972,272.394 313.300 C 273.058 312.695,274.344 311.518,275.251 310.684 C 276.159 309.850,277.418 308.901,278.051 308.574 C 278.683 308.247,279.200 307.841,279.200 307.671 C 279.200 307.216,280.343 305.792,282.641 303.387 C 283.958 302.008,284.855 300.638,285.170 299.525 C 285.540 298.220,285.966 297.654,286.921 297.200 C 287.917 296.727,288.337 296.133,288.915 294.385 C 289.382 292.973,289.956 292.030,290.498 291.785 C 291.752 291.218,292.595 289.388,293.212 285.900 C 293.513 284.195,293.873 282.800,294.012 282.800 C 295.489 282.800,296.839 279.062,297.220 273.916 C 297.654 268.054,298.085 265.021,298.829 262.600 C 299.899 259.114,299.648 251.972,298.392 250.200 C 298.043 249.707,297.675 246.544,297.200 239.959 C 296.804 234.457,296.395 233.092,294.712 231.642 C 294.007 231.035,293.600 230.289,293.600 229.604 C 293.600 227.498,292.119 223.913,290.832 222.907 C 290.155 222.376,289.600 221.757,289.600 221.531 C 289.600 221.306,289.355 220.554,289.056 219.860 C 288.757 219.167,288.318 218.120,288.080 217.533 C 287.842 216.946,287.142 216.224,286.524 215.928 C 285.829 215.596,285.232 214.871,284.959 214.032 C 284.417 212.361,282.972 210.800,281.966 210.800 C 281.473 210.800,281.131 210.422,280.970 209.700 C 280.836 209.095,280.651 208.317,280.559 207.972 C 280.467 207.627,279.772 207.049,279.014 206.687 C 278.256 206.326,277.356 205.489,277.014 204.827 C 276.307 203.460,275.290 202.800,273.890 202.800 C 271.520 202.800,271.607 197.525,273.986 197.003 C 275.230 196.730,276.171 195.842,276.554 194.580 C 276.691 194.129,277.414 193.539,278.161 193.268 C 279.429 192.810,280.800 190.914,280.800 189.619 C 280.800 189.366,281.434 188.894,282.210 188.570 C 283.301 188.114,283.857 187.478,284.674 185.753 C 285.254 184.528,285.976 183.431,286.278 183.315 C 287.113 182.994,289.200 179.770,289.200 178.802 C 289.200 177.655,289.906 176.400,290.552 176.400 C 291.873 176.400,293.543 172.391,293.586 169.114 C 293.594 168.448,293.909 167.863,294.399 167.601 C 296.000 166.744,296.845 164.198,297.239 159.049 C 297.675 153.338,298.113 150.282,298.965 147.000 C 299.763 143.923,299.761 139.994,298.959 137.200 C 298.099 134.203,297.681 131.324,297.213 125.179 C 296.827 120.106,295.501 116.400,294.071 116.400 C 293.911 116.400,293.571 115.083,293.315 113.472 C 292.719 109.727,292.176 108.574,290.531 107.558 C 289.601 106.983,289.200 106.435,289.200 105.741 C 289.200 104.448,288.610 103.383,287.004 101.777 C 286.286 101.060,285.453 99.916,285.152 99.236 C 284.851 98.556,284.469 98.000,284.302 98.000 C 284.136 98.000,284.000 97.761,284.000 97.470 C 284.000 96.856,282.518 95.431,281.512 95.077 C 281.133 94.943,280.705 94.332,280.559 93.717 C 280.251 92.413,278.900 90.800,278.116 90.800 C 277.170 90.800,275.685 89.594,275.443 88.630 C 275.308 88.092,274.689 87.485,273.972 87.188 C 273.291 86.906,272.037 86.028,271.186 85.238 C 267.858 82.146,266.994 81.600,265.426 81.600 C 264.833 81.600,264.400 81.373,264.400 81.061 C 264.400 79.582,262.015 78.311,258.225 77.769 C 257.046 77.600,255.910 77.147,255.406 76.642 C 253.413 74.650,251.285 73.912,246.049 73.399 C 244.463 73.243,243.095 72.851,242.431 72.360 C 239.772 70.394,240.127 70.408,192.200 70.436 C 162.045 70.454,147.008 70.600,146.200 70.883 M236.200 72.915 C 238.400 73.285,241.640 73.781,243.400 74.015 C 248.171 74.651,249.989 75.181,252.200 76.580 C 253.300 77.276,255.190 78.076,256.400 78.357 C 259.054 78.974,260.728 79.696,261.800 80.686 C 262.240 81.092,263.590 81.893,264.800 82.465 C 266.010 83.037,267.496 84.066,268.103 84.753 C 268.710 85.439,269.465 86.000,269.781 86.000 C 270.097 86.000,271.221 86.872,272.278 87.938 C 273.335 89.004,275.010 90.397,276.000 91.033 C 278.053 92.351,278.875 93.180,280.104 95.167 C 280.581 95.939,281.629 97.229,282.434 98.034 C 283.238 98.838,284.224 100.240,284.625 101.148 C 285.026 102.057,285.472 102.800,285.616 102.800 C 286.136 102.800,287.417 104.226,287.951 105.400 C 289.104 107.934,289.745 109.034,290.628 110.000 C 291.210 110.637,291.936 112.525,292.627 115.200 C 293.224 117.510,293.935 119.670,294.208 120.000 C 296.510 122.786,297.000 126.682,297.000 142.200 C 297.000 156.855,296.218 163.074,294.219 164.313 C 293.965 164.471,293.461 165.770,293.100 167.200 C 291.756 172.520,291.432 173.416,290.499 174.396 C 289.973 174.948,288.989 176.521,288.312 177.892 C 287.635 179.263,286.777 180.480,286.406 180.598 C 286.035 180.716,285.307 181.717,284.789 182.824 C 284.271 183.930,283.116 185.633,282.223 186.609 C 279.864 189.187,279.641 189.473,279.168 190.510 C 278.932 191.027,278.123 191.783,277.369 192.189 C 276.615 192.595,275.542 193.524,274.985 194.255 C 274.429 194.985,273.153 196.063,272.151 196.650 C 270.556 197.585,270.359 197.847,270.567 198.759 C 270.698 199.331,270.919 200.395,271.059 201.122 C 271.264 202.196,271.670 202.625,273.229 203.415 C 274.293 203.954,275.470 204.936,275.873 205.621 C 276.273 206.300,277.187 207.218,277.904 207.662 C 278.620 208.106,279.649 209.219,280.190 210.135 C 280.731 211.051,281.809 212.303,282.586 212.917 C 283.364 213.531,284.000 214.230,284.000 214.469 C 284.000 214.893,286.054 217.920,287.440 219.538 C 287.819 219.981,288.387 221.121,288.702 222.072 C 289.018 223.022,289.774 224.340,290.383 225.000 C 291.418 226.122,292.012 227.574,293.247 232.000 C 293.523 232.990,294.044 234.250,294.405 234.800 C 298.338 240.800,297.974 279.600,293.984 279.600 C 293.830 279.600,293.490 280.455,293.228 281.500 C 292.000 286.404,291.400 288.092,290.592 288.913 C 290.112 289.401,289.136 291.031,288.422 292.535 C 287.709 294.039,286.675 295.659,286.123 296.135 C 285.572 296.611,284.706 297.810,284.199 298.800 C 283.692 299.790,282.630 301.170,281.839 301.866 C 281.048 302.562,280.400 303.408,280.400 303.746 C 280.400 304.083,279.815 304.806,279.100 305.352 C 278.385 305.897,276.942 307.166,275.893 308.172 C 274.844 309.177,273.764 310.002,273.493 310.005 C 273.222 310.008,272.605 310.620,272.122 311.366 C 271.623 312.136,270.416 313.128,269.329 313.661 C 268.276 314.177,267.051 314.989,266.607 315.465 C 265.728 316.406,262.267 318.395,261.486 318.408 C 261.219 318.412,260.325 319.005,259.500 319.725 C 258.430 320.660,257.283 321.182,255.500 321.548 C 250.895 322.494,249.001 322.972,248.800 323.241 C 246.634 326.129,239.813 326.475,188.937 326.274 C 144.191 326.097,143.315 326.057,140.808 324.070 C 140.034 323.456,138.050 322.535,136.400 322.023 C 134.452 321.419,132.873 320.621,131.899 319.746 C 131.073 319.006,130.262 318.400,130.097 318.400 C 129.785 318.400,125.328 314.071,122.673 311.188 C 120.851 309.210,119.604 307.245,119.601 306.350 C 119.601 305.993,118.998 305.043,118.261 304.239 C 116.885 302.737,116.499 301.526,115.570 295.800 C 115.320 294.260,114.864 291.794,114.558 290.321 C 113.733 286.362,113.724 112.120,114.548 108.325 C 114.850 106.936,115.315 104.270,115.582 102.400 C 116.241 97.791,116.715 96.394,118.058 95.097 C 118.686 94.490,119.202 93.770,119.204 93.497 C 119.213 92.301,121.362 88.538,122.910 87.005 C 123.839 86.085,125.070 84.808,125.644 84.166 C 128.154 81.364,130.827 79.233,133.126 78.201 C 134.487 77.590,135.600 76.940,135.600 76.756 C 135.600 75.901,140.176 74.364,145.000 73.599 C 146.320 73.390,148.480 72.964,149.800 72.652 C 153.678 71.737,230.596 71.971,236.200 72.915 M147.800 97.095 C 146.858 97.332,141.600 101.900,141.600 102.481 C 141.600 102.700,141.105 103.356,140.500 103.940 C 138.621 105.751,137.181 111.041,137.750 114.044 C 137.891 114.790,138.123 116.203,138.265 117.184 C 138.444 118.421,138.932 119.410,139.859 120.412 C 140.595 121.207,141.754 122.699,142.436 123.728 C 143.118 124.758,143.793 125.600,143.938 125.600 C 144.082 125.601,144.722 126.050,145.359 126.598 C 147.809 128.705,162.217 129.723,166.600 128.099 L 168.600 127.358 168.600 119.139 C 168.600 113.615,168.445 110.606,168.126 109.960 C 167.866 109.432,167.257 107.830,166.774 106.400 C 165.552 102.781,165.010 101.825,163.720 101.012 C 163.104 100.624,162.057 99.681,161.394 98.917 C 159.794 97.073,152.017 96.031,147.800 97.095 M190.676 97.078 C 189.038 97.340,188.972 98.105,190.377 100.560 C 191.934 103.281,192.367 107.260,192.387 119.039 C 192.404 129.584,191.747 128.800,200.570 128.800 C 208.781 128.800,210.518 128.431,211.789 126.418 C 212.300 125.608,213.146 124.665,213.670 124.322 C 214.193 123.979,215.258 123.062,216.035 122.285 C 216.862 121.458,218.185 120.668,219.224 120.381 C 225.189 118.732,230.357 118.053,231.755 118.736 C 232.220 118.963,233.680 119.350,235.000 119.595 C 236.320 119.840,237.906 120.144,238.525 120.270 C 239.144 120.395,240.740 121.550,242.070 122.836 C 243.401 124.122,244.826 125.281,245.237 125.412 C 245.678 125.552,246.275 126.466,246.691 127.638 C 247.079 128.731,247.818 130.115,248.333 130.713 C 250.304 133.001,250.546 134.148,250.541 141.200 C 250.536 148.199,250.506 148.338,248.350 151.204 C 247.772 151.972,247.077 153.292,246.806 154.137 C 246.151 156.181,243.879 158.425,241.179 159.694 C 240.397 160.062,239.417 160.739,239.000 161.200 C 235.711 164.835,222.192 164.720,218.000 161.021 C 217.230 160.342,215.880 159.346,215.000 158.808 C 213.145 157.674,212.868 157.419,211.727 155.795 C 210.342 153.823,207.544 153.200,200.079 153.200 L 193.789 153.200 193.094 154.803 C 192.007 157.313,192.040 185.150,193.131 186.138 C 193.794 186.738,196.003 186.800,216.631 186.796 C 241.110 186.791,241.447 186.766,244.494 184.698 C 245.842 183.783,248.284 182.843,250.847 182.253 C 251.423 182.120,252.617 181.289,253.500 180.406 C 254.383 179.523,255.354 178.800,255.657 178.800 C 256.303 178.800,258.400 176.947,258.400 176.375 C 258.400 176.159,258.895 175.762,259.500 175.492 C 260.842 174.894,262.019 173.751,262.744 172.344 C 263.043 171.763,263.709 171.063,264.224 170.787 C 264.739 170.512,265.606 169.345,266.150 168.196 C 266.694 167.046,267.564 165.767,268.082 165.353 C 268.673 164.881,269.299 163.629,269.759 162.000 C 270.688 158.709,271.412 156.721,272.600 154.200 C 274.885 149.347,274.958 133.455,272.709 130.279 C 271.775 128.959,270.400 125.351,270.400 124.219 C 270.400 122.846,269.074 119.848,267.915 118.600 C 267.302 117.940,266.448 116.652,266.016 115.739 C 265.585 114.825,264.682 113.686,264.010 113.207 C 263.338 112.729,262.516 111.810,262.183 111.166 C 261.850 110.522,260.854 109.539,259.969 108.981 C 259.085 108.423,258.245 107.659,258.103 107.283 C 257.715 106.258,256.985 105.636,255.382 104.967 C 254.587 104.635,253.455 103.870,252.867 103.268 C 252.205 102.591,250.653 101.815,248.798 101.234 C 247.149 100.717,245.322 99.958,244.738 99.547 C 244.154 99.136,243.479 98.800,243.238 98.800 C 242.997 98.800,242.800 98.659,242.800 98.488 C 242.800 97.220,197.443 95.993,190.676 97.078 M156.851 97.800 C 157.429 97.888,158.748 98.772,159.784 99.764 C 160.819 100.755,162.029 101.682,162.472 101.823 C 165.183 102.683,165.963 105.999,166.282 118.008 L 166.521 127.017 165.442 127.508 C 162.168 129.000,148.540 127.821,147.435 125.952 C 147.015 125.241,146.191 124.650,145.210 124.356 C 144.033 124.003,143.537 123.583,143.185 122.644 C 142.240 120.121,141.814 119.543,140.741 119.328 C 139.050 118.990,138.372 107.009,140.013 106.462 C 141.061 106.113,142.800 104.078,142.800 103.202 C 142.800 102.142,143.692 101.200,144.696 101.200 C 145.597 101.200,147.200 99.797,147.200 99.008 C 147.200 97.585,151.732 97.017,156.851 97.800 M236.173 97.640 C 239.191 98.011,239.866 98.230,240.510 99.049 C 241.407 100.189,243.034 100.926,246.233 101.642 C 247.876 102.010,248.947 102.546,249.910 103.481 C 250.657 104.206,251.613 104.800,252.034 104.800 C 252.455 104.800,252.800 104.959,252.800 105.153 C 252.800 105.346,253.587 105.703,254.548 105.945 C 255.906 106.287,256.406 106.649,256.785 107.564 C 257.392 109.029,258.277 109.816,259.700 110.154 C 260.366 110.312,260.806 110.688,260.814 111.108 C 260.839 112.329,261.862 113.714,263.220 114.366 C 264.070 114.774,264.670 115.428,264.901 116.200 C 265.608 118.562,266.965 120.853,268.031 121.482 C 269.136 122.135,269.586 123.514,269.596 126.275 C 269.602 127.995,271.489 133.750,272.386 134.784 C 274.006 136.652,273.902 145.861,272.221 149.400 C 270.387 153.262,269.600 156.003,269.600 158.527 C 269.600 160.873,269.157 162.318,268.375 162.522 C 267.357 162.789,265.200 166.305,265.200 167.699 C 265.200 168.615,264.936 168.951,263.868 169.397 C 262.298 170.053,261.804 170.606,261.445 172.111 C 261.261 172.878,260.717 173.437,259.689 173.911 C 257.864 174.755,257.385 175.187,257.029 176.310 C 256.844 176.891,256.192 177.347,255.076 177.676 C 254.106 177.961,252.702 178.860,251.743 179.810 C 250.431 181.109,249.596 181.556,247.743 181.950 C 243.716 182.806,242.639 183.262,241.343 184.655 L 240.086 186.006 216.743 185.903 L 193.400 185.800 193.473 170.841 C 193.530 158.972,193.654 155.806,194.073 155.520 C 194.666 155.114,209.048 155.330,210.036 155.760 C 210.385 155.912,210.925 156.613,211.236 157.318 C 211.615 158.181,212.389 158.882,213.600 159.462 C 214.590 159.937,215.682 160.837,216.028 161.462 C 217.348 163.856,218.831 164.178,228.600 164.189 L 237.400 164.200 239.293 163.087 C 240.334 162.476,241.356 161.656,241.565 161.266 C 241.773 160.876,242.956 160.062,244.193 159.456 C 245.430 158.850,246.538 158.050,246.655 157.677 C 247.285 155.673,248.186 154.036,249.425 152.650 C 251.329 150.520,251.400 150.094,251.400 140.800 C 251.400 131.736,251.133 130.288,249.158 128.626 C 248.505 128.077,247.694 126.964,247.355 126.155 C 246.589 124.320,246.083 123.808,244.696 123.460 C 244.088 123.307,243.600 122.907,243.600 122.562 C 243.600 121.127,241.418 119.664,238.842 119.373 C 237.078 119.173,236.217 118.874,235.834 118.327 C 233.817 115.447,225.343 115.282,222.342 118.063 C 221.550 118.796,220.545 119.214,219.098 119.410 C 215.676 119.873,211.959 122.681,210.974 125.547 C 210.319 127.452,208.108 127.961,200.376 127.983 C 192.492 128.006,193.296 129.530,193.106 114.200 C 192.972 103.272,192.849 101.172,192.269 99.839 C 191.504 98.082,191.481 98.176,192.815 97.644 C 194.212 97.086,231.629 97.083,236.173 97.640 M139.207 151.106 C 137.554 151.727,137.600 150.375,137.600 197.847 C 137.600 251.792,137.476 250.258,141.611 247.392 C 144.008 245.732,147.765 245.202,157.200 245.194 C 163.160 245.190,165.837 245.036,167.000 244.631 L 168.600 244.074 168.600 200.204 L 168.600 156.334 167.200 155.149 C 166.430 154.498,165.605 153.814,165.368 153.630 C 165.130 153.445,161.260 153.220,156.768 153.129 C 151.862 153.030,148.280 152.787,147.800 152.521 C 147.360 152.277,145.740 151.870,144.200 151.616 C 142.660 151.362,141.040 151.093,140.600 151.019 C 140.160 150.944,139.533 150.983,139.207 151.106 M143.679 153.000 C 145.542 154.598,147.111 154.862,156.099 155.090 C 162.233 155.246,165.006 155.462,165.499 155.823 C 166.370 156.460,166.881 241.954,166.023 243.557 C 165.582 244.381,165.337 244.400,155.406 244.400 C 145.202 244.400,141.616 244.748,140.349 245.862 C 139.782 246.361,139.667 246.352,139.449 245.785 C 139.159 245.028,139.105 152.229,139.394 151.939 C 139.822 151.511,142.804 152.249,143.679 153.000 M194.094 212.398 C 192.521 213.058,192.400 214.275,192.400 229.364 C 192.400 247.273,191.228 245.321,201.872 245.134 C 209.866 244.993,211.600 244.689,211.600 243.428 C 211.600 243.129,212.081 242.460,212.669 241.942 C 213.257 241.424,214.515 240.240,215.464 239.311 C 217.257 237.557,220.163 236.324,223.789 235.781 C 224.791 235.631,225.708 235.348,225.829 235.154 C 226.114 234.692,231.326 234.693,231.820 235.156 C 232.029 235.351,233.190 235.698,234.400 235.926 C 239.337 236.857,241.369 237.723,241.899 239.123 C 242.249 240.049,242.824 240.585,244.260 241.328 C 245.617 242.029,246.435 243.121,247.135 245.164 C 247.393 245.915,248.011 247.085,248.510 247.764 C 250.484 250.455,250.600 251.001,250.600 257.561 C 250.600 264.034,250.247 265.880,248.752 267.221 C 248.371 267.563,247.592 268.899,247.021 270.192 C 245.836 272.869,243.357 275.422,240.600 276.800 C 239.940 277.130,239.182 277.690,238.916 278.045 C 236.839 280.812,223.380 281.177,219.322 278.575 C 216.151 276.542,214.485 275.241,212.721 273.419 C 210.171 270.787,208.741 270.440,200.346 270.418 L 193.691 270.400 193.095 271.700 C 192.638 272.694,192.440 275.447,192.251 283.400 C 192.115 289.120,191.809 294.520,191.572 295.400 C 191.334 296.280,190.998 297.720,190.826 298.600 C 190.653 299.480,190.384 300.668,190.228 301.241 C 189.821 302.729,190.835 302.795,213.600 302.779 C 234.361 302.764,234.920 302.721,239.800 300.759 C 240.240 300.582,241.410 300.234,242.400 299.987 C 248.019 298.582,249.600 298.061,249.600 297.617 C 249.600 297.460,251.153 296.541,253.050 295.574 C 255.056 294.552,256.666 293.455,256.895 292.951 C 257.112 292.475,258.098 291.641,259.085 291.098 C 260.187 290.492,261.218 289.510,261.753 288.555 C 262.233 287.700,263.198 286.640,263.897 286.200 C 264.597 285.760,265.176 285.211,265.185 284.980 C 265.210 284.297,266.175 282.407,266.500 282.403 C 266.665 282.401,266.800 282.164,266.800 281.875 C 266.800 281.586,267.342 280.830,268.005 280.196 C 268.754 279.478,269.446 278.202,269.836 276.821 C 270.180 275.599,270.640 273.970,270.858 273.200 C 271.374 271.372,272.081 269.899,272.682 269.400 C 275.131 267.368,274.805 249.046,272.233 244.151 C 271.670 243.078,270.767 240.505,270.227 238.433 C 269.525 235.737,268.971 234.430,268.278 233.833 C 267.746 233.375,266.721 231.924,266.001 230.610 C 265.280 229.295,264.131 227.702,263.446 227.069 C 262.761 226.436,261.300 225.077,260.200 224.049 C 256.672 220.752,252.646 217.600,251.962 217.600 C 250.859 217.600,248.662 216.534,247.450 215.412 C 246.346 214.388,245.046 213.979,239.000 212.752 C 235.991 212.141,195.467 211.822,194.094 212.398 M237.191 213.986 C 242.064 214.222,244.633 214.499,244.733 214.799 C 245.344 216.633,248.408 218.381,251.033 218.394 C 252.007 218.399,252.469 218.708,253.233 219.867 C 253.765 220.675,254.470 221.464,254.800 221.621 C 255.130 221.779,255.900 222.141,256.511 222.427 C 257.122 222.713,257.728 223.371,257.858 223.889 C 258.000 224.456,258.725 225.153,259.674 225.638 C 260.542 226.081,261.597 227.027,262.018 227.740 C 262.438 228.453,263.299 229.418,263.930 229.885 C 264.673 230.434,265.263 231.397,265.605 232.618 C 266.000 234.028,266.508 234.766,267.624 235.551 C 269.017 236.531,269.133 236.772,269.376 239.200 C 269.688 242.311,270.419 246.045,270.824 246.600 C 273.821 250.704,274.589 260.000,272.273 264.121 C 270.956 266.462,269.771 270.817,269.400 274.674 C 269.141 277.376,269.055 277.572,267.978 277.948 C 267.114 278.249,266.540 278.969,265.645 280.874 C 264.992 282.263,263.635 284.208,262.629 285.195 C 261.623 286.182,260.800 287.183,260.800 287.420 C 260.800 287.977,259.072 289.533,256.800 291.021 C 254.674 292.414,254.000 293.012,254.000 293.507 C 254.000 293.974,252.453 294.679,250.708 295.006 C 249.958 295.147,248.715 295.838,247.947 296.542 C 246.385 297.973,244.464 298.662,241.200 298.963 C 239.990 299.074,237.216 299.443,235.035 299.783 C 228.296 300.832,193.972 300.688,193.298 299.608 C 192.911 298.988,192.888 296.395,193.195 287.708 C 193.411 281.599,193.590 275.549,193.594 274.264 L 193.600 271.928 201.500 272.088 C 210.289 272.266,210.594 272.333,211.397 274.255 C 211.809 275.240,212.440 275.817,213.695 276.355 C 214.725 276.797,215.614 277.513,215.895 278.129 C 216.941 280.424,222.469 281.270,233.043 280.754 C 239.188 280.453,241.281 279.724,242.079 277.605 C 242.146 277.428,243.081 276.768,244.159 276.138 C 245.236 275.508,246.245 274.724,246.400 274.396 C 246.556 274.068,247.024 273.080,247.441 272.200 C 247.859 271.320,248.609 270.269,249.108 269.865 C 252.776 266.894,252.483 246.169,248.756 244.986 C 248.370 244.864,247.809 244.007,247.509 243.082 C 247.070 241.727,246.639 241.244,245.294 240.600 C 244.375 240.160,243.521 239.500,243.395 239.133 C 242.791 237.366,241.546 236.430,239.184 235.965 C 237.873 235.707,236.800 235.372,236.800 235.222 C 236.800 232.437,224.715 231.864,221.877 234.515 C 220.895 235.432,218.148 236.400,216.526 236.400 C 216.436 236.400,215.462 237.300,214.362 238.400 C 213.262 239.500,212.221 240.400,212.049 240.400 C 211.876 240.400,211.480 240.895,211.168 241.500 C 209.789 244.172,208.958 244.400,200.608 244.400 L 193.668 244.400 193.412 241.500 C 193.272 239.905,193.211 233.110,193.278 226.400 L 193.400 214.200 197.800 213.979 C 205.268 213.604,229.405 213.608,237.191 213.986 M150.600 270.800 C 150.160 270.989,149.226 271.156,148.524 271.172 C 147.822 271.187,147.151 271.356,147.032 271.547 C 146.914 271.739,146.083 272.012,145.185 272.156 C 143.819 272.374,143.461 272.635,142.995 273.749 C 142.689 274.482,141.810 275.710,141.041 276.479 C 136.981 280.539,136.712 292.007,140.607 294.978 C 141.311 295.515,142.191 296.595,142.562 297.377 C 142.934 298.160,143.418 298.800,143.638 298.800 C 144.035 298.800,144.767 299.154,149.366 301.568 C 152.344 303.131,158.000 302.572,158.000 300.714 C 158.000 300.541,158.199 300.400,158.442 300.400 C 160.213 300.400,164.425 297.408,165.451 295.421 C 167.948 290.585,168.603 287.316,168.532 280.041 C 168.458 272.431,168.478 272.496,165.686 270.900 C 164.669 270.319,151.916 270.234,150.600 270.800 M165.432 272.575 C 167.048 274.191,165.959 293.973,164.199 294.967 C 163.153 295.559,162.724 295.987,161.660 297.500 C 161.026 298.401,160.425 298.800,159.701 298.800 C 159.127 298.800,158.104 298.969,157.428 299.175 C 154.846 299.962,152.293 300.293,151.266 299.973 C 150.680 299.791,148.716 299.227,146.902 298.721 C 144.322 298.001,143.604 297.642,143.602 297.074 C 143.599 295.983,142.882 294.848,141.051 293.035 L 139.400 291.400 139.270 286.140 L 139.140 280.881 140.286 280.204 C 140.926 279.826,141.949 278.525,142.599 277.263 C 145.023 272.557,146.282 272.111,157.329 272.045 C 163.384 272.009,164.970 272.112,165.432 272.575 " stroke="none" fill="#f8eccc" fill-rule="evenodd"></path><path id="path3" d="M156.400 0.948 L 156.400 1.895 148.900 2.097 C 140.091 2.333,140.164 2.313,139.817 4.627 L 139.551 6.400 134.175 6.400 C 128.155 6.400,127.200 6.783,127.200 9.200 L 127.200 10.400 123.633 10.400 C 118.999 10.400,118.800 10.490,118.800 12.585 L 118.800 14.284 116.100 14.539 C 114.615 14.680,112.108 14.796,110.529 14.797 C 107.202 14.800,106.400 15.312,106.400 17.429 L 106.400 18.800 104.443 18.800 C 102.283 18.800,102.000 19.105,102.000 21.433 L 102.000 22.800 99.250 22.800 C 94.508 22.800,94.134 22.969,93.832 25.241 L 93.572 27.200 90.219 27.200 C 85.796 27.200,85.600 27.295,85.600 29.443 L 85.600 31.200 83.880 31.200 C 81.719 31.200,81.200 31.719,81.200 33.880 L 81.200 35.600 77.974 35.600 C 73.878 35.600,73.200 35.943,73.200 38.014 C 73.200 39.579,73.180 39.600,71.700 39.606 C 69.622 39.615,69.099 40.063,68.831 42.066 L 68.600 43.800 66.700 43.922 L 64.800 44.044 64.800 46.001 L 64.800 47.958 62.700 48.079 L 60.600 48.200 60.479 50.079 L 60.358 51.958 58.479 52.079 L 56.600 52.200 56.480 54.280 L 56.360 56.360 54.280 56.480 L 52.200 56.600 52.079 58.479 L 51.958 60.358 50.079 60.479 L 48.200 60.600 48.079 62.700 L 47.958 64.800 46.001 64.800 L 44.044 64.800 43.922 66.700 L 43.800 68.600 42.066 68.831 C 40.063 69.099,39.615 69.622,39.606 71.700 C 39.600 73.180,39.579 73.200,38.014 73.200 C 35.943 73.200,35.600 73.878,35.600 77.974 L 35.600 81.200 33.880 81.200 C 31.719 81.200,31.200 81.719,31.200 83.880 L 31.200 85.600 29.443 85.600 C 27.297 85.600,27.200 85.799,27.200 90.181 L 27.200 93.497 25.240 93.757 C 22.883 94.070,22.800 94.236,22.800 98.633 L 22.800 102.000 21.433 102.000 C 18.852 102.000,18.800 102.087,18.800 106.421 L 18.800 110.356 16.904 110.478 C 15.585 110.563,14.983 110.783,14.927 111.200 C 14.883 111.530,14.731 113.366,14.589 115.279 L 14.332 118.759 12.466 118.879 L 10.600 119.000 10.486 123.100 L 10.372 127.200 8.866 127.200 C 6.513 127.200,6.400 127.505,6.400 133.880 L 6.400 139.600 4.900 139.606 C 2.177 139.617,2.215 139.499,2.064 148.385 L 1.928 156.400 0.964 156.400 L 0.000 156.400 0.000 200.000 L 0.000 243.600 0.948 243.600 L 1.895 243.600 2.097 251.100 C 2.333 259.909,2.313 259.836,4.627 260.183 L 6.400 260.449 6.400 265.825 C 6.400 271.845,6.783 272.800,9.200 272.800 L 10.400 272.800 10.400 276.367 C 10.400 281.001,10.490 281.200,12.585 281.200 L 14.284 281.200 14.539 283.900 C 14.680 285.385,14.796 287.892,14.797 289.471 C 14.800 292.798,15.312 293.600,17.429 293.600 L 18.800 293.600 18.800 295.557 C 18.800 297.709,19.108 298.000,21.385 298.000 L 22.705 298.000 22.872 301.827 C 23.058 306.085,23.243 306.384,25.700 306.394 L 27.200 306.400 27.200 309.767 C 27.200 314.205,27.294 314.400,29.443 314.400 L 31.200 314.400 31.200 316.120 C 31.200 318.281,31.719 318.800,33.880 318.800 L 35.600 318.800 35.600 322.026 C 35.600 326.122,35.943 326.800,38.014 326.800 C 39.579 326.800,39.600 326.820,39.606 328.300 C 39.615 330.378,40.063 330.901,42.066 331.169 L 43.800 331.400 43.920 333.259 C 44.049 335.244,44.477 335.582,46.878 335.595 C 47.880 335.600,47.965 335.735,48.078 337.500 L 48.200 339.400 50.079 339.521 L 51.958 339.642 52.079 341.521 L 52.200 343.400 54.280 343.520 L 56.360 343.640 56.480 345.720 L 56.600 347.800 58.479 347.921 L 60.358 348.042 60.479 349.921 L 60.600 351.800 62.700 351.921 L 64.800 352.042 64.800 353.974 C 64.800 356.060,65.186 356.382,67.700 356.395 C 68.685 356.399,68.800 356.543,68.800 357.771 C 68.800 359.576,69.686 360.400,71.629 360.400 C 73.193 360.400,73.200 360.407,73.200 361.986 C 73.200 364.057,73.878 364.400,77.974 364.400 L 81.200 364.400 81.200 366.120 C 81.200 368.281,81.719 368.800,83.880 368.800 L 85.600 368.800 85.600 370.557 C 85.600 372.701,85.801 372.800,90.160 372.800 L 93.454 372.800 93.827 374.900 L 94.200 377.000 98.100 377.114 L 102.000 377.229 102.000 378.582 C 102.000 381.148,102.088 381.200,106.443 381.200 L 110.400 381.200 110.400 382.920 C 110.400 385.371,110.798 385.600,115.058 385.600 L 118.756 385.600 118.878 387.500 L 119.000 389.400 123.100 389.514 L 127.200 389.628 127.200 391.134 C 127.200 393.487,127.505 393.600,133.880 393.600 L 139.600 393.600 139.606 395.100 C 139.617 397.824,139.498 397.786,148.385 397.930 L 156.400 398.060 156.400 399.030 L 156.400 400.000 200.000 400.000 L 243.600 400.000 243.600 399.048 L 243.600 398.096 251.100 397.907 C 259.881 397.684,259.835 397.697,260.183 395.373 L 260.449 393.600 265.825 393.600 C 271.845 393.600,272.800 393.217,272.800 390.800 L 272.800 389.600 276.367 389.600 C 281.022 389.600,281.200 389.518,281.200 387.357 L 281.200 385.600 285.300 385.583 C 292.261 385.553,293.582 385.065,293.594 382.521 C 293.600 381.261,293.631 381.240,295.700 381.121 L 297.800 381.000 297.922 379.100 L 298.044 377.200 301.742 377.200 C 305.997 377.200,306.400 376.970,306.400 374.534 L 306.400 372.829 310.300 372.714 L 314.200 372.600 314.321 370.720 L 314.442 368.840 316.521 368.720 L 318.600 368.600 318.721 366.500 L 318.842 364.400 322.144 364.400 C 325.944 364.400,326.701 364.016,326.878 362.000 C 326.993 360.676,327.094 360.587,328.734 360.369 C 330.678 360.109,331.185 359.570,331.194 357.752 C 331.200 356.569,331.294 356.493,333.020 356.299 C 335.253 356.047,335.247 356.053,335.497 353.840 L 335.700 352.040 337.550 351.920 L 339.400 351.800 339.521 349.921 L 339.642 348.042 341.521 347.921 L 343.400 347.800 343.520 345.720 L 343.640 343.640 345.720 343.520 L 347.800 343.400 347.921 341.521 L 348.042 339.642 349.921 339.521 L 351.800 339.400 351.920 337.550 L 352.040 335.700 353.840 335.497 C 356.053 335.247,356.047 335.253,356.299 333.020 C 356.493 331.294,356.569 331.200,357.752 331.194 C 359.570 331.185,360.109 330.678,360.369 328.734 C 360.587 327.094,360.676 326.993,362.000 326.878 C 364.016 326.701,364.400 325.944,364.400 322.144 L 364.400 318.842 366.500 318.721 L 368.600 318.600 368.720 316.521 L 368.840 314.442 370.720 314.321 L 372.600 314.200 372.714 310.300 L 372.829 306.400 374.534 306.400 C 376.970 306.400,377.200 305.997,377.200 301.742 L 377.200 298.044 379.100 297.922 L 381.000 297.800 381.114 293.700 L 381.228 289.600 382.781 289.600 C 385.571 289.600,385.600 289.555,385.600 285.179 L 385.600 281.244 387.500 281.122 L 389.400 281.000 389.514 276.900 L 389.628 272.800 391.134 272.800 C 393.487 272.800,393.600 272.495,393.600 266.120 L 393.600 260.400 395.100 260.394 C 397.824 260.383,397.786 260.502,397.930 251.615 L 398.060 243.600 399.030 243.600 L 400.000 243.600 400.000 200.000 L 400.000 156.400 399.048 156.400 L 398.096 156.400 397.907 148.900 C 397.684 140.119,397.697 140.165,395.373 139.817 L 393.600 139.551 393.600 134.175 C 393.600 128.155,393.217 127.200,390.800 127.200 L 389.600 127.200 389.600 123.633 C 389.600 118.978,389.518 118.800,387.357 118.800 L 385.600 118.800 385.576 114.900 C 385.532 107.742,385.053 106.418,382.500 106.406 C 381.211 106.400,381.200 106.383,381.200 104.443 C 381.200 102.283,380.895 102.000,378.567 102.000 L 377.200 102.000 377.194 98.500 C 377.187 94.311,377.121 94.188,374.700 93.831 L 372.800 93.551 372.800 90.208 C 372.800 85.797,372.704 85.600,370.557 85.600 L 368.800 85.600 368.800 83.880 C 368.800 81.719,368.281 81.200,366.120 81.200 L 364.400 81.200 364.400 77.974 C 364.400 73.878,364.057 73.200,361.986 73.200 C 360.407 73.200,360.400 73.193,360.400 71.629 C 360.400 69.686,359.576 68.800,357.771 68.800 C 356.543 68.800,356.399 68.685,356.395 67.700 C 356.382 65.186,356.060 64.800,353.974 64.800 L 352.042 64.800 351.921 62.700 L 351.800 60.600 349.921 60.479 L 348.042 60.358 347.921 58.479 L 347.800 56.600 345.720 56.480 L 343.640 56.360 343.520 54.280 L 343.400 52.200 341.521 52.079 L 339.642 51.958 339.521 50.079 L 339.400 48.200 337.500 48.078 C 335.735 47.965,335.600 47.880,335.595 46.878 C 335.582 44.477,335.244 44.049,333.259 43.920 L 331.400 43.800 331.169 42.066 C 330.901 40.063,330.378 39.615,328.300 39.606 C 326.820 39.600,326.800 39.579,326.800 38.014 C 326.800 35.943,326.122 35.600,322.026 35.600 L 318.800 35.600 318.800 33.880 C 318.800 31.719,318.281 31.200,316.120 31.200 L 314.400 31.200 314.400 29.443 C 314.400 27.294,314.205 27.200,309.767 27.200 L 306.400 27.200 306.400 25.414 C 306.400 23.102,305.825 22.800,301.426 22.800 L 298.000 22.800 298.000 21.433 C 298.000 18.852,297.913 18.800,293.579 18.800 L 289.644 18.800 289.522 16.904 C 289.437 15.585,289.217 14.983,288.800 14.927 C 288.470 14.883,286.634 14.731,284.721 14.589 L 281.241 14.332 281.121 12.466 L 281.000 10.600 276.900 10.486 L 272.800 10.372 272.800 8.866 C 272.800 6.513,272.495 6.400,266.120 6.400 L 260.400 6.400 260.394 4.900 C 260.383 2.177,260.501 2.215,251.615 2.064 L 243.600 1.928 243.600 0.964 L 243.600 0.000 200.000 0.000 L 156.400 0.000 156.400 0.948 M239.182 70.990 C 240.382 71.310,241.844 71.926,242.431 72.360 C 243.095 72.851,244.463 73.243,246.049 73.399 C 251.285 73.912,253.413 74.650,255.406 76.642 C 255.910 77.147,257.046 77.600,258.225 77.769 C 262.015 78.311,264.400 79.582,264.400 81.061 C 264.400 81.373,264.833 81.600,265.426 81.600 C 266.994 81.600,267.858 82.146,271.186 85.238 C 272.037 86.028,273.291 86.906,273.972 87.188 C 274.689 87.485,275.308 88.092,275.443 88.630 C 275.685 89.594,277.170 90.800,278.116 90.800 C 278.900 90.800,280.251 92.413,280.559 93.717 C 280.705 94.332,281.133 94.943,281.512 95.077 C 282.518 95.431,284.000 96.856,284.000 97.470 C 284.000 97.761,284.136 98.000,284.302 98.000 C 284.469 98.000,284.851 98.556,285.152 99.236 C 285.453 99.916,286.286 101.060,287.004 101.777 C 288.610 103.383,289.200 104.448,289.200 105.741 C 289.200 106.435,289.601 106.983,290.531 107.558 C 292.176 108.574,292.719 109.727,293.315 113.472 C 293.571 115.083,293.911 116.400,294.071 116.400 C 295.501 116.400,296.827 120.106,297.213 125.179 C 297.681 131.324,298.099 134.203,298.959 137.200 C 299.761 139.994,299.763 143.923,298.965 147.000 C 298.113 150.282,297.675 153.338,297.239 159.049 C 296.845 164.198,296.000 166.744,294.399 167.601 C 293.909 167.863,293.594 168.448,293.586 169.114 C 293.543 172.391,291.873 176.400,290.552 176.400 C 289.906 176.400,289.200 177.655,289.200 178.802 C 289.200 179.770,287.113 182.994,286.278 183.315 C 285.976 183.431,285.254 184.528,284.674 185.753 C 283.857 187.478,283.301 188.114,282.210 188.570 C 281.434 188.894,280.800 189.366,280.800 189.619 C 280.800 190.914,279.429 192.810,278.161 193.268 C 277.414 193.539,276.691 194.129,276.554 194.580 C 276.171 195.842,275.230 196.730,273.986 197.003 C 271.607 197.525,271.520 202.800,273.890 202.800 C 275.290 202.800,276.307 203.460,277.014 204.827 C 277.356 205.489,278.256 206.326,279.014 206.687 C 279.772 207.049,280.467 207.627,280.559 207.972 C 280.651 208.317,280.836 209.095,280.970 209.700 C 281.131 210.422,281.473 210.800,281.966 210.800 C 282.972 210.800,284.417 212.361,284.959 214.032 C 285.232 214.871,285.829 215.596,286.524 215.928 C 287.142 216.224,287.842 216.946,288.080 217.533 C 288.318 218.120,288.757 219.167,289.056 219.860 C 289.355 220.554,289.600 221.306,289.600 221.531 C 289.600 221.757,290.155 222.376,290.832 222.907 C 292.119 223.913,293.600 227.498,293.600 229.604 C 293.600 230.289,294.007 231.035,294.712 231.642 C 296.395 233.092,296.804 234.457,297.200 239.959 C 297.675 246.544,298.043 249.707,298.392 250.200 C 299.648 251.972,299.899 259.114,298.829 262.600 C 298.085 265.021,297.654 268.054,297.220 273.916 C 296.839 279.062,295.489 282.800,294.012 282.800 C 293.873 282.800,293.513 284.195,293.212 285.900 C 292.595 289.388,291.752 291.218,290.498 291.785 C 289.956 292.030,289.382 292.973,288.915 294.385 C 288.337 296.133,287.917 296.727,286.921 297.200 C 285.966 297.654,285.540 298.220,285.170 299.525 C 284.855 300.638,283.958 302.008,282.641 303.387 C 280.343 305.792,279.200 307.216,279.200 307.671 C 279.200 307.841,278.683 308.247,278.051 308.574 C 277.418 308.901,276.159 309.850,275.251 310.684 C 274.344 311.518,273.058 312.695,272.394 313.300 C 271.656 313.972,270.733 314.400,270.020 314.400 C 269.159 314.400,268.782 314.635,268.580 315.300 C 268.140 316.743,267.281 317.473,265.406 317.998 C 264.442 318.268,263.202 318.996,262.650 319.615 C 261.076 321.381,257.024 322.800,253.554 322.800 C 252.708 322.800,252.050 323.154,251.348 323.988 C 249.069 326.697,246.834 326.822,196.000 327.063 C 144.165 327.310,140.068 327.098,137.499 324.045 C 136.817 323.234,135.914 322.806,134.049 322.410 C 131.929 321.960,131.180 321.555,129.397 319.892 C 128.228 318.802,126.866 317.705,126.370 317.455 C 125.874 317.205,125.183 316.426,124.834 315.725 C 124.485 315.024,123.516 314.034,122.680 313.525 C 121.187 312.616,119.200 309.561,119.200 308.174 C 119.200 307.815,118.539 306.933,117.730 306.213 C 116.058 304.725,115.216 302.452,115.205 299.400 C 115.201 298.197,114.894 296.842,114.434 296.000 C 112.790 292.989,112.454 291.944,112.036 288.534 C 111.462 283.853,111.429 113.768,112.001 110.000 C 112.508 106.662,113.169 104.464,114.055 103.165 C 114.444 102.596,114.929 100.777,115.135 99.122 C 115.627 95.159,117.369 91.600,118.817 91.600 C 118.979 91.600,119.232 90.954,119.380 90.164 C 119.898 87.405,120.556 86.589,122.843 85.871 C 123.197 85.760,123.593 85.135,123.723 84.483 C 124.016 83.018,124.966 82.028,126.348 81.746 C 127.018 81.609,127.618 81.074,128.000 80.270 C 128.589 79.032,129.344 78.508,131.862 77.593 C 132.556 77.341,133.215 76.786,133.326 76.361 C 133.600 75.315,136.745 73.979,139.834 73.596 C 141.520 73.387,142.778 72.960,143.671 72.293 C 144.402 71.748,145.540 71.113,146.200 70.883 C 148.270 70.159,236.443 70.261,239.182 70.990 M150.140 97.612 C 147.779 97.945,147.200 98.220,147.200 99.008 C 147.200 99.797,145.597 101.200,144.696 101.200 C 143.692 101.200,142.800 102.142,142.800 103.202 C 142.800 104.078,141.061 106.113,140.013 106.462 C 138.372 107.009,139.050 118.990,140.741 119.328 C 141.814 119.543,142.240 120.121,143.185 122.644 C 143.537 123.583,144.033 124.003,145.210 124.356 C 146.191 124.650,147.015 125.241,147.435 125.952 C 148.540 127.821,162.168 129.000,165.442 127.508 L 166.521 127.017 166.282 118.008 C 165.963 105.999,165.183 102.683,162.472 101.823 C 162.029 101.682,160.819 100.755,159.784 99.764 C 158.748 98.772,157.429 97.888,156.851 97.800 C 154.272 97.406,152.048 97.343,150.140 97.612 M192.815 97.644 C 191.481 98.176,191.504 98.082,192.269 99.839 C 192.849 101.172,192.972 103.272,193.106 114.200 C 193.296 129.530,192.492 128.006,200.376 127.983 C 208.108 127.961,210.319 127.452,210.974 125.547 C 211.959 122.681,215.676 119.873,219.098 119.410 C 220.545 119.214,221.550 118.796,222.342 118.063 C 225.343 115.282,233.817 115.447,235.834 118.327 C 236.217 118.874,237.078 119.173,238.842 119.373 C 241.418 119.664,243.600 121.127,243.600 122.562 C 243.600 122.907,244.088 123.307,244.696 123.460 C 246.083 123.808,246.589 124.320,247.355 126.155 C 247.694 126.964,248.505 128.077,249.158 128.626 C 251.133 130.288,251.400 131.736,251.400 140.800 C 251.400 150.094,251.329 150.520,249.425 152.650 C 248.186 154.036,247.285 155.673,246.655 157.677 C 246.538 158.050,245.430 158.850,244.193 159.456 C 242.956 160.062,241.773 160.876,241.565 161.266 C 241.356 161.656,240.334 162.476,239.293 163.087 L 237.400 164.200 228.600 164.189 C 218.831 164.178,217.348 163.856,216.028 161.462 C 215.682 160.837,214.590 159.937,213.600 159.462 C 212.389 158.882,211.615 158.181,211.236 157.318 C 210.925 156.613,210.385 155.912,210.036 155.760 C 209.048 155.330,194.666 155.114,194.073 155.520 C 193.654 155.806,193.530 158.972,193.473 170.841 L 193.400 185.800 216.743 185.903 L 240.086 186.006 241.343 184.655 C 242.639 183.262,243.716 182.806,247.743 181.950 C 249.596 181.556,250.431 181.109,251.743 179.810 C 252.702 178.860,254.106 177.961,255.076 177.676 C 256.192 177.347,256.844 176.891,257.029 176.310 C 257.385 175.187,257.864 174.755,259.689 173.911 C 260.717 173.437,261.261 172.878,261.445 172.111 C 261.804 170.606,262.298 170.053,263.868 169.397 C 264.936 168.951,265.200 168.615,265.200 167.699 C 265.200 166.305,267.357 162.789,268.375 162.522 C 269.157 162.318,269.600 160.873,269.600 158.527 C 269.600 156.003,270.387 153.262,272.221 149.400 C 273.902 145.861,274.006 136.652,272.386 134.784 C 271.489 133.750,269.602 127.995,269.596 126.275 C 269.586 123.514,269.136 122.135,268.031 121.482 C 266.965 120.853,265.608 118.562,264.901 116.200 C 264.670 115.428,264.070 114.774,263.220 114.366 C 261.862 113.714,260.839 112.329,260.814 111.108 C 260.806 110.688,260.366 110.312,259.700 110.154 C 258.277 109.816,257.392 109.029,256.785 107.564 C 256.406 106.649,255.906 106.287,254.548 105.945 C 253.587 105.703,252.800 105.346,252.800 105.153 C 252.800 104.959,252.455 104.800,252.034 104.800 C 251.613 104.800,250.657 104.206,249.910 103.481 C 248.947 102.546,247.876 102.010,246.233 101.642 C 243.034 100.926,241.407 100.189,240.510 99.049 C 239.866 98.230,239.191 98.011,236.173 97.640 C 231.629 97.083,194.212 97.086,192.815 97.644 M139.394 151.939 C 139.105 152.229,139.159 245.028,139.449 245.785 C 139.667 246.352,139.782 246.361,140.349 245.862 C 141.616 244.748,145.202 244.400,155.406 244.400 C 165.337 244.400,165.582 244.381,166.023 243.557 C 166.881 241.954,166.370 156.460,165.499 155.823 C 165.006 155.462,162.233 155.246,156.099 155.090 C 147.111 154.862,145.542 154.598,143.679 153.000 C 142.804 152.249,139.822 151.511,139.394 151.939 M197.800 213.979 L 193.400 214.200 193.278 226.400 C 193.211 233.110,193.272 239.905,193.412 241.500 L 193.668 244.400 200.608 244.400 C 208.958 244.400,209.789 244.172,211.168 241.500 C 211.480 240.895,211.876 240.400,212.049 240.400 C 212.221 240.400,213.262 239.500,214.362 238.400 C 215.462 237.300,216.436 236.400,216.526 236.400 C 218.148 236.400,220.895 235.432,221.877 234.515 C 224.715 231.864,236.800 232.437,236.800 235.222 C 236.800 235.372,237.873 235.707,239.184 235.965 C 241.546 236.430,242.791 237.366,243.395 239.133 C 243.521 239.500,244.375 240.160,245.294 240.600 C 246.639 241.244,247.070 241.727,247.509 243.082 C 247.809 244.007,248.370 244.864,248.756 244.986 C 250.921 245.673,251.400 247.958,251.400 257.600 C 251.400 267.302,251.245 268.134,249.108 269.865 C 248.609 270.269,247.859 271.320,247.441 272.200 C 247.024 273.080,246.556 274.068,246.400 274.396 C 246.245 274.724,245.236 275.508,244.159 276.138 C 243.081 276.768,242.146 277.428,242.079 277.605 C 241.281 279.724,239.188 280.453,233.043 280.754 C 222.469 281.270,216.941 280.424,215.895 278.129 C 215.614 277.513,214.725 276.797,213.695 276.355 C 212.440 275.817,211.809 275.240,211.397 274.255 C 210.594 272.333,210.289 272.266,201.500 272.088 L 193.600 271.928 193.594 274.264 C 193.590 275.549,193.411 281.599,193.195 287.708 C 192.888 296.395,192.911 298.988,193.298 299.608 C 193.972 300.688,228.296 300.832,235.035 299.783 C 237.216 299.443,239.990 299.074,241.200 298.963 C 244.464 298.662,246.385 297.973,247.947 296.542 C 248.715 295.838,249.958 295.147,250.708 295.006 C 252.453 294.679,254.000 293.974,254.000 293.507 C 254.000 293.012,254.674 292.414,256.800 291.021 C 259.072 289.533,260.800 287.977,260.800 287.420 C 260.800 287.183,261.623 286.182,262.629 285.195 C 263.635 284.208,264.992 282.263,265.645 280.874 C 266.540 278.969,267.114 278.249,267.978 277.948 C 269.055 277.572,269.141 277.376,269.400 274.674 C 269.771 270.817,270.956 266.462,272.273 264.121 C 274.589 260.000,273.821 250.704,270.824 246.600 C 270.419 246.045,269.688 242.311,269.376 239.200 C 269.133 236.772,269.017 236.531,267.624 235.551 C 266.508 234.766,266.000 234.028,265.605 232.618 C 265.263 231.397,264.673 230.434,263.930 229.885 C 263.299 229.418,262.438 228.453,262.018 227.740 C 261.597 227.027,260.542 226.081,259.674 225.638 C 258.725 225.153,258.000 224.456,257.858 223.889 C 257.728 223.371,257.122 222.713,256.511 222.427 C 255.900 222.141,255.130 221.779,254.800 221.621 C 254.470 221.464,253.765 220.675,253.233 219.867 C 252.469 218.708,252.007 218.399,251.033 218.394 C 248.408 218.381,245.344 216.633,244.733 214.799 C 244.409 213.826,212.090 213.262,197.800 213.979 M147.800 272.545 C 145.412 273.088,144.168 274.217,142.599 277.263 C 141.949 278.525,140.926 279.826,140.286 280.204 L 139.140 280.881 139.270 286.140 L 139.400 291.400 141.051 293.035 C 142.882 294.848,143.599 295.983,143.602 297.074 C 143.604 297.642,144.322 298.001,146.902 298.721 C 148.716 299.227,150.680 299.791,151.266 299.973 C 152.293 300.293,154.846 299.962,157.428 299.175 C 158.104 298.969,159.127 298.800,159.701 298.800 C 160.425 298.800,161.026 298.401,161.660 297.500 C 162.724 295.987,163.153 295.559,164.199 294.967 C 165.959 293.973,167.048 274.191,165.432 272.575 C 164.713 271.856,150.930 271.833,147.800 272.545 " stroke="none" fill="#fcfcfb" fill-rule="evenodd"></path><path id="path4" d="M148.400 74.045 C 142.474 74.834,139.090 75.737,137.205 77.034 C 136.181 77.738,134.495 78.701,133.458 79.174 C 132.421 79.646,130.619 80.880,129.454 81.916 C 128.288 82.952,126.944 84.065,126.466 84.389 C 125.988 84.713,125.502 85.278,125.386 85.644 C 125.270 86.010,124.389 87.118,123.430 88.105 C 122.470 89.093,121.395 90.553,121.042 91.350 C 120.689 92.148,120.106 93.464,119.746 94.275 C 119.386 95.086,118.753 96.114,118.339 96.558 C 117.455 97.507,117.022 99.031,116.397 103.400 C 116.146 105.160,115.773 107.575,115.570 108.767 C 115.054 111.789,115.078 285.380,115.595 289.471 C 116.633 297.687,117.300 300.734,118.424 302.400 C 118.795 302.950,119.642 304.481,120.306 305.802 C 120.969 307.123,122.162 308.913,122.956 309.780 C 123.750 310.647,124.400 311.472,124.400 311.613 C 124.400 311.754,125.906 313.204,127.746 314.835 C 134.308 320.649,134.123 320.529,138.470 321.795 C 139.719 322.158,141.221 322.868,141.807 323.373 C 144.190 325.420,143.873 325.408,193.600 325.295 C 242.461 325.183,241.927 325.204,246.200 323.228 C 247.520 322.617,249.590 321.902,250.800 321.639 C 255.473 320.623,256.666 320.224,258.600 319.028 C 259.700 318.349,261.140 317.532,261.800 317.214 C 262.460 316.896,264.080 315.903,265.400 315.007 C 266.720 314.111,268.340 313.114,269.000 312.791 C 270.185 312.213,271.999 310.471,272.000 309.912 C 272.000 309.754,272.698 309.222,273.551 308.731 C 274.404 308.240,275.435 307.344,275.841 306.739 C 276.248 306.134,277.017 305.405,277.551 305.119 C 278.540 304.590,280.530 302.186,283.400 298.051 C 284.280 296.784,285.395 295.330,285.877 294.822 C 286.360 294.314,287.231 292.886,287.813 291.649 C 288.395 290.412,289.460 288.500,290.180 287.400 C 290.900 286.300,291.615 284.680,291.769 283.800 C 292.085 281.988,292.686 279.963,293.429 278.200 C 295.447 273.409,295.794 271.654,296.431 263.000 C 297.159 253.115,296.037 241.410,293.920 236.800 C 293.365 235.590,292.601 233.363,292.224 231.851 C 291.380 228.468,290.920 227.391,289.553 225.600 C 288.965 224.830,288.248 223.521,287.959 222.692 C 287.670 221.862,286.749 220.355,285.912 219.343 C 285.076 218.330,284.082 216.849,283.705 216.051 C 283.328 215.253,282.181 213.773,281.156 212.761 C 280.131 211.750,279.183 210.575,279.048 210.151 C 278.913 209.726,278.408 209.113,277.925 208.789 C 276.929 208.121,275.685 206.896,274.800 205.713 C 274.470 205.272,273.660 204.619,273.000 204.263 C 269.320 202.279,267.858 198.170,270.313 196.711 C 272.396 195.473,278.329 189.952,279.803 187.880 C 280.241 187.264,281.165 186.138,281.855 185.379 C 282.545 184.619,283.395 183.396,283.744 182.661 C 284.093 181.926,285.103 180.532,285.989 179.563 C 286.875 178.593,287.600 177.586,287.600 177.323 C 287.600 176.828,289.165 173.952,289.626 173.600 C 290.199 173.163,291.369 170.482,291.895 168.400 C 292.202 167.190,292.593 165.660,292.765 165.000 C 292.937 164.340,293.526 162.810,294.074 161.600 C 297.592 153.836,297.534 129.917,293.979 122.200 C 292.772 119.580,292.206 117.823,291.810 115.470 C 291.571 114.051,290.269 111.262,289.630 110.800 C 289.478 110.690,288.755 109.340,288.024 107.800 C 287.292 106.260,286.132 104.448,285.447 103.773 C 284.761 103.098,283.936 102.046,283.613 101.436 C 283.290 100.826,282.480 99.721,281.813 98.979 C 280.337 97.338,279.979 96.885,279.143 95.600 C 278.141 94.060,277.114 93.006,275.800 92.170 C 274.185 91.142,273.835 90.859,271.880 89.000 C 269.949 87.163,266.993 84.977,264.798 83.763 C 263.966 83.302,262.141 82.209,260.743 81.333 C 259.344 80.457,257.300 79.511,256.200 79.232 C 253.189 78.467,251.959 77.963,250.192 76.772 C 248.478 75.617,244.710 74.916,235.400 74.022 C 230.062 73.509,152.271 73.529,148.400 74.045 M240.732 76.030 C 245.390 76.548,247.043 77.019,248.512 78.243 C 249.774 79.293,251.531 79.879,254.992 80.403 C 256.871 80.688,257.547 80.989,258.143 81.806 C 258.888 82.830,262.418 84.800,263.506 84.800 C 263.811 84.800,264.593 85.332,265.244 85.982 C 265.894 86.632,267.307 87.644,268.384 88.230 C 269.577 88.879,270.524 89.733,270.806 90.414 C 271.060 91.028,271.792 91.748,272.432 92.013 C 273.924 92.631,276.978 95.592,279.136 98.514 C 280.065 99.771,280.971 100.800,281.150 100.800 C 281.328 100.800,281.901 101.630,282.423 102.645 C 282.945 103.660,283.964 104.942,284.686 105.493 C 285.409 106.044,286.000 106.691,286.000 106.932 C 286.000 108.041,287.914 112.227,288.918 113.313 C 289.980 114.463,290.856 117.286,291.783 122.552 C 291.933 123.406,292.517 124.835,293.081 125.728 C 295.625 129.758,295.772 158.000,293.249 158.000 C 292.888 158.000,292.111 159.954,291.818 161.600 C 291.525 163.247,290.907 166.008,290.371 168.063 C 290.162 168.868,289.452 170.102,288.795 170.805 C 288.138 171.509,287.600 172.390,287.600 172.762 C 287.600 173.135,287.442 173.611,287.248 173.820 C 287.055 174.029,286.671 174.920,286.395 175.800 C 286.119 176.680,285.312 177.888,284.602 178.483 C 283.892 179.079,283.071 180.159,282.778 180.883 C 282.485 181.608,282.137 182.290,282.005 182.400 C 281.873 182.510,280.472 184.160,278.890 186.067 C 277.309 187.974,275.159 190.224,274.112 191.067 C 273.064 191.910,271.666 193.140,271.004 193.800 C 270.342 194.460,269.083 195.557,268.208 196.238 C 265.329 198.476,267.614 204.131,272.016 205.665 C 272.644 205.885,273.516 206.670,273.953 207.410 C 274.390 208.151,275.479 209.219,276.374 209.783 C 277.360 210.406,278.000 211.114,278.000 211.582 C 278.000 212.007,278.722 212.950,279.605 213.677 C 280.487 214.405,281.694 215.990,282.287 217.200 C 282.879 218.410,283.912 219.981,284.582 220.692 C 286.628 222.862,286.800 223.132,286.800 224.160 C 286.800 224.706,286.980 225.264,287.200 225.400 C 287.420 225.536,287.600 225.914,287.600 226.241 C 287.600 226.568,288.058 227.322,288.619 227.917 C 290.062 229.451,290.609 230.878,291.383 235.131 C 291.799 237.419,292.499 239.663,293.193 240.931 C 295.786 245.672,295.716 268.682,293.096 273.231 C 292.535 274.204,291.772 276.562,291.401 278.472 C 290.526 282.967,289.971 284.530,288.768 285.890 C 288.228 286.501,287.528 287.810,287.214 288.800 C 286.517 290.993,285.779 292.217,284.180 293.834 C 283.509 294.512,282.639 295.907,282.247 296.934 C 281.855 297.960,281.345 298.800,281.113 298.800 C 280.489 298.800,278.801 300.897,278.800 301.673 C 278.800 302.288,277.840 303.112,275.825 304.227 C 275.401 304.461,274.861 304.994,274.627 305.410 C 273.967 306.579,273.466 307.042,272.089 307.754 C 271.390 308.116,270.408 309.128,269.909 310.003 C 269.280 311.104,268.727 311.595,268.112 311.597 C 267.082 311.600,264.741 312.841,263.476 314.053 C 262.994 314.515,261.430 315.423,260.000 316.072 C 258.570 316.720,256.950 317.675,256.400 318.194 C 255.449 319.091,250.702 320.390,248.317 320.406 C 247.093 320.414,245.072 321.150,242.400 322.563 L 240.200 323.725 205.800 324.057 C 184.778 324.260,166.568 324.240,158.976 324.006 C 145.833 323.600,145.408 323.534,142.550 321.456 C 141.822 320.927,140.069 320.322,138.350 320.007 C 135.712 319.524,135.221 319.284,133.707 317.734 C 132.775 316.780,131.785 315.995,131.507 315.989 C 131.228 315.983,130.569 315.398,130.043 314.689 C 129.517 313.980,128.388 312.904,127.536 312.299 C 126.683 311.693,125.705 310.608,125.361 309.888 C 125.018 309.168,124.218 308.280,123.583 307.916 C 122.927 307.540,122.311 306.767,122.157 306.127 C 121.805 304.669,120.485 301.777,119.359 300.000 C 117.353 296.832,117.400 299.246,117.400 199.000 C 117.400 94.237,117.237 99.863,120.359 97.037 C 120.822 96.618,121.202 95.989,121.204 95.638 C 121.211 94.460,123.086 91.012,124.378 89.800 C 125.082 89.140,126.032 87.936,126.489 87.123 C 126.947 86.311,127.789 85.453,128.361 85.216 C 128.933 84.979,130.031 84.041,130.800 83.132 C 132.092 81.606,135.595 79.600,136.969 79.600 C 137.270 79.600,138.084 79.069,138.778 78.420 C 141.711 75.681,141.437 75.695,191.932 75.645 C 221.631 75.615,238.175 75.746,240.732 76.030 M147.554 94.988 C 145.048 95.443,142.000 96.875,142.000 97.597 C 142.000 97.780,140.875 99.070,139.500 100.465 C 137.366 102.629,136.893 103.380,136.271 105.600 C 135.870 107.030,135.285 108.767,134.971 109.460 C 134.140 111.296,134.248 114.519,135.200 116.296 C 135.640 117.116,136.008 118.151,136.017 118.594 C 136.043 119.849,137.208 121.747,139.602 124.437 C 145.239 130.770,144.714 130.600,158.690 130.600 L 169.181 130.600 170.290 129.490 L 171.400 128.379 171.400 118.090 C 171.400 107.122,171.342 106.748,169.286 104.573 C 168.856 104.118,168.258 103.065,167.957 102.232 C 167.376 100.624,165.809 98.800,165.010 98.800 C 164.745 98.800,164.328 98.360,164.082 97.821 C 162.796 94.998,154.929 93.650,147.554 94.988 M188.275 95.366 C 186.313 97.184,186.426 99.608,188.821 107.077 C 189.978 110.685,190.000 110.918,190.000 119.477 L 190.001 128.200 191.032 129.400 L 192.064 130.600 201.227 130.721 C 211.802 130.860,212.670 130.671,213.866 127.960 C 214.307 126.959,214.818 126.400,215.292 126.400 C 215.698 126.400,216.788 125.624,217.715 124.675 C 220.084 122.251,221.961 121.793,229.400 121.828 C 236.522 121.862,236.800 121.957,241.067 125.821 C 243.932 128.416,245.984 131.472,245.996 133.162 C 245.998 133.471,246.462 134.330,247.026 135.070 C 248.378 136.842,248.886 142.619,247.884 144.825 C 245.747 149.530,245.200 150.905,245.200 151.567 C 245.200 152.217,244.264 153.363,240.680 157.100 C 240.205 157.595,239.570 158.000,239.269 158.000 C 238.270 158.000,236.033 159.266,235.814 159.955 C 235.221 161.826,222.988 161.846,221.988 159.977 C 221.791 159.609,220.588 158.817,219.315 158.218 C 217.688 157.452,216.048 156.141,213.800 153.809 C 209.888 149.751,209.408 149.600,200.442 149.600 C 189.766 149.600,190.047 148.933,190.015 174.314 C 189.999 187.188,190.031 187.375,192.478 188.640 C 194.061 189.459,226.988 189.932,234.200 189.240 C 236.840 188.986,239.990 188.686,241.200 188.572 C 244.065 188.304,246.402 187.628,247.400 186.780 C 248.482 185.860,249.385 185.421,252.204 184.444 C 253.622 183.953,255.008 183.143,255.600 182.460 C 256.150 181.825,257.230 180.986,258.000 180.596 C 260.454 179.353,268.400 170.950,268.400 169.598 C 268.400 169.335,268.996 168.524,269.724 167.796 C 270.452 167.068,271.287 165.691,271.578 164.736 C 271.870 163.781,272.302 162.370,272.538 161.600 C 272.775 160.830,273.462 159.693,274.064 159.072 C 274.809 158.306,275.238 157.346,275.406 156.072 C 275.542 155.043,275.816 153.300,276.014 152.200 C 277.710 142.781,276.596 127.979,273.985 125.248 C 273.355 124.588,272.685 123.216,272.379 121.958 C 272.090 120.771,271.707 119.629,271.527 119.420 C 271.347 119.211,271.200 118.725,271.200 118.339 C 271.200 117.954,270.573 117.030,269.808 116.286 C 269.042 115.542,268.141 114.279,267.807 113.479 C 267.473 112.678,266.642 111.613,265.960 111.112 C 265.279 110.610,264.471 109.718,264.165 109.128 C 263.859 108.538,262.886 107.650,262.004 107.154 C 261.122 106.658,260.400 106.104,260.400 105.923 C 260.400 105.331,258.224 103.316,257.261 103.015 C 256.744 102.853,255.660 102.064,254.853 101.261 C 253.513 99.928,252.820 99.620,248.765 98.554 C 248.416 98.462,247.552 97.871,246.845 97.240 C 244.151 94.835,238.676 94.400,211.114 94.400 L 189.317 94.400 188.275 95.366 M158.974 96.576 C 160.624 97.006,161.580 97.566,162.732 98.776 C 163.581 99.669,164.407 100.400,164.567 100.400 C 165.128 100.400,166.014 101.567,166.750 103.275 C 167.159 104.224,167.923 105.900,168.447 107.000 C 169.369 108.935,169.400 109.313,169.400 118.581 L 169.400 128.161 167.400 128.879 C 162.095 130.783,145.311 129.313,143.600 126.794 C 142.966 125.861,141.678 124.195,140.874 123.268 C 134.355 115.754,135.275 106.811,143.359 99.109 C 146.547 96.073,153.013 95.024,158.974 96.576 M239.865 96.597 C 243.161 97.224,245.200 97.905,245.200 98.380 C 245.200 98.699,248.178 100.038,250.600 100.809 C 251.480 101.089,252.907 101.922,253.772 102.659 C 254.637 103.397,255.574 104.000,255.855 104.000 C 256.136 104.000,257.415 105.035,258.698 106.300 C 259.980 107.565,261.383 108.903,261.815 109.273 C 262.247 109.643,263.320 110.790,264.200 111.821 C 265.080 112.852,266.025 113.931,266.300 114.219 C 266.575 114.507,266.800 114.903,266.800 115.099 C 266.800 115.296,267.414 116.173,268.164 117.049 C 268.988 118.012,269.949 119.899,270.594 121.821 C 271.180 123.569,272.211 126.255,272.884 127.790 C 275.796 134.427,276.092 144.435,273.696 155.171 C 273.577 155.705,273.052 156.772,272.530 157.542 C 272.007 158.312,271.473 159.405,271.343 159.971 C 270.687 162.822,269.756 165.050,268.736 166.212 C 268.113 166.921,267.340 168.010,267.018 168.631 C 265.623 171.319,259.913 177.181,256.402 179.530 C 255.193 180.338,253.817 181.378,253.343 181.840 C 252.870 182.303,251.519 182.985,250.341 183.356 C 247.967 184.104,246.318 184.840,245.974 185.304 C 244.582 187.179,237.142 187.937,219.764 187.974 C 201.140 188.014,193.410 187.655,192.387 186.702 C 191.127 185.529,191.320 155.379,192.600 153.303 L 193.400 152.005 200.400 152.009 C 208.956 152.013,209.715 152.229,212.849 155.553 C 214.118 156.899,215.333 158.000,215.549 158.000 C 215.766 158.000,216.181 158.225,216.471 158.500 C 220.180 162.008,221.846 162.567,228.639 162.585 C 234.849 162.600,235.870 162.397,237.800 160.756 C 238.240 160.382,239.500 159.580,240.600 158.973 C 242.906 157.701,245.102 155.454,246.144 153.299 C 246.543 152.475,247.155 151.260,247.505 150.600 C 249.812 146.243,249.740 146.558,249.739 140.843 C 249.738 135.982,249.646 135.250,248.880 134.000 C 248.409 133.230,247.377 131.237,246.589 129.572 C 245.800 127.906,244.774 126.286,244.310 125.972 C 243.845 125.657,242.518 124.558,241.361 123.529 C 239.324 121.719,238.500 121.358,233.354 120.026 C 231.337 119.504,226.536 119.469,224.960 119.965 C 224.322 120.165,222.662 120.565,221.272 120.853 C 219.294 121.263,218.308 121.750,216.738 123.090 C 215.635 124.032,214.416 125.027,214.030 125.301 C 213.643 125.575,213.090 126.246,212.800 126.792 C 211.470 129.297,210.350 129.559,200.862 129.583 C 194.473 129.599,193.832 129.535,192.762 128.773 L 191.600 127.946 191.600 119.149 C 191.600 109.947,191.180 105.682,190.011 103.000 C 186.737 95.492,184.931 96.030,213.465 96.013 C 232.460 96.002,237.305 96.109,239.865 96.597 M136.098 149.403 C 133.892 150.980,133.999 148.386,134.006 200.080 C 134.009 226.326,134.144 247.989,134.306 248.219 C 136.160 250.864,143.210 250.966,146.600 248.396 C 147.486 247.724,150.235 247.480,159.533 247.245 L 169.266 247.000 170.472 245.650 L 171.677 244.301 171.492 199.850 C 171.298 153.275,171.317 153.760,169.600 151.357 C 168.701 150.098,167.263 149.931,154.200 149.569 C 147.600 149.386,141.030 149.129,139.600 148.997 C 137.565 148.810,136.804 148.898,136.098 149.403 M148.600 151.400 C 151.240 151.721,156.149 151.988,159.508 151.992 C 166.240 152.001,168.306 152.650,169.216 155.041 C 169.669 156.233,169.746 243.975,169.294 244.619 C 168.598 245.613,165.476 246.000,158.154 246.002 C 149.750 246.003,144.270 246.674,142.506 247.916 C 140.743 249.158,139.753 249.310,138.209 248.577 L 136.797 247.907 136.898 199.654 L 137.000 151.400 138.286 150.758 C 139.300 150.251,140.018 150.189,141.686 150.465 C 142.849 150.658,145.960 151.078,148.600 151.400 M199.800 208.357 C 189.477 208.775,190.044 207.598,190.019 228.658 L 190.000 244.715 191.179 245.978 L 192.358 247.240 202.147 247.120 L 211.936 247.000 212.968 245.800 C 213.535 245.140,213.999 244.376,214.000 244.102 C 214.000 243.828,214.765 243.242,215.700 242.798 C 216.635 242.355,217.778 241.407,218.241 240.692 C 220.883 236.605,235.913 237.280,240.400 241.686 C 241.390 242.659,242.514 243.571,242.899 243.714 C 243.530 243.949,246.000 248.652,246.000 249.619 C 246.000 249.838,246.472 250.731,247.050 251.604 C 248.998 254.547,248.919 259.346,246.851 263.740 C 245.943 265.669,245.200 267.631,245.200 268.100 C 245.200 268.571,244.519 269.589,243.678 270.376 C 242.841 271.159,241.857 272.280,241.491 272.866 C 241.073 273.536,240.008 274.239,238.632 274.753 C 237.426 275.205,236.073 275.887,235.626 276.271 C 233.014 278.507,224.760 278.573,222.200 276.378 C 221.760 276.001,220.950 275.558,220.400 275.393 C 218.888 274.942,217.313 273.738,213.889 270.418 C 210.072 266.716,210.691 266.888,201.046 266.840 L 193.092 266.800 192.160 267.806 C 190.746 269.331,190.465 271.036,190.045 280.600 C 189.672 289.115,189.472 290.417,187.950 294.200 C 187.206 296.050,186.688 301.643,187.176 302.555 C 188.496 305.021,188.118 304.988,214.957 304.985 L 239.400 304.982 241.400 304.063 C 242.500 303.557,243.670 302.923,244.000 302.654 C 244.670 302.108,246.354 301.530,249.542 300.751 C 250.948 300.407,252.264 299.716,253.376 298.738 C 254.306 297.919,255.515 297.136,256.062 296.999 C 257.171 296.721,258.774 295.395,259.432 294.212 C 259.670 293.785,260.560 293.046,261.410 292.570 C 262.261 292.094,263.261 291.137,263.633 290.443 C 264.005 289.749,264.907 288.779,265.637 288.286 C 266.368 287.794,267.333 286.673,267.781 285.796 C 268.230 284.918,268.882 283.930,269.231 283.600 C 270.251 282.634,272.000 279.403,272.000 278.484 C 272.000 277.387,272.807 275.562,273.628 274.800 C 275.959 272.636,277.592 259.850,276.591 251.600 C 275.484 242.476,274.928 240.221,273.578 239.387 C 273.058 239.065,272.508 237.698,271.753 234.846 C 271.424 233.606,270.549 231.898,269.691 230.819 C 268.871 229.789,267.843 228.212,267.406 227.313 C 266.962 226.402,266.066 225.386,265.376 225.015 C 264.696 224.649,263.884 223.963,263.570 223.491 C 262.805 222.338,261.180 220.735,260.031 220.000 C 259.515 219.670,258.933 219.220,258.739 219.000 C 258.544 218.780,258.074 218.239,257.693 217.797 C 256.958 216.946,256.089 216.482,253.223 215.410 C 252.246 215.044,251.150 214.403,250.788 213.986 C 249.955 213.026,246.669 211.602,245.267 211.594 C 243.941 211.586,241.354 210.706,240.466 209.960 C 238.505 208.312,219.469 207.561,199.800 208.357 M236.600 211.073 C 237.260 211.315,238.880 211.734,240.200 212.003 C 243.774 212.733,248.010 214.068,248.590 214.647 C 249.275 215.332,251.915 216.800,252.461 216.800 C 253.212 216.800,257.916 220.351,260.586 222.932 C 261.989 224.289,263.526 225.670,264.001 226.000 C 264.476 226.330,265.496 227.680,266.269 229.000 C 267.042 230.320,267.991 231.760,268.379 232.200 C 269.504 233.476,270.295 235.184,271.248 238.400 C 271.738 240.050,272.433 241.850,272.794 242.400 C 276.156 247.521,276.111 264.785,272.718 272.009 C 271.945 273.654,271.184 275.534,271.027 276.186 C 270.615 277.898,269.238 280.800,268.839 280.800 C 268.651 280.800,268.273 281.340,268.000 282.000 C 267.727 282.660,267.389 283.200,267.249 283.200 C 267.110 283.200,266.747 283.761,266.443 284.447 C 266.140 285.133,265.151 286.454,264.246 287.382 C 263.341 288.311,262.150 289.629,261.600 290.311 C 261.050 290.992,260.218 291.649,259.752 291.770 C 259.285 291.891,258.418 292.626,257.825 293.403 C 257.185 294.241,255.637 295.376,254.021 296.190 C 252.521 296.945,251.049 297.796,250.747 298.081 C 250.084 298.709,248.556 299.444,247.200 299.785 C 243.698 300.666,241.902 301.269,240.607 301.996 C 237.615 303.676,191.259 304.343,189.320 302.734 C 188.577 302.117,188.889 298.425,189.880 296.102 C 191.056 293.344,191.276 291.462,191.569 281.600 C 191.960 268.471,191.509 269.210,199.317 268.897 C 207.725 268.561,209.779 269.087,213.232 272.459 C 214.776 273.966,216.198 275.200,216.391 275.200 C 216.585 275.200,216.988 275.425,217.288 275.700 C 220.137 278.311,225.843 279.959,230.269 279.448 C 235.032 278.898,235.851 278.657,238.078 277.146 C 239.331 276.296,240.534 275.600,240.751 275.600 C 241.590 275.600,245.180 271.618,246.197 269.561 C 246.785 268.372,247.435 267.130,247.643 266.800 C 250.034 262.996,250.744 253.967,248.903 250.755 C 247.385 248.106,247.236 247.813,246.236 245.535 C 245.690 244.289,244.763 242.939,244.177 242.535 C 243.590 242.131,242.273 240.965,241.248 239.944 C 239.010 237.715,236.947 237.001,230.253 236.140 C 228.431 235.905,223.860 236.470,221.600 237.208 C 221.050 237.388,220.130 237.637,219.557 237.761 C 218.256 238.043,213.348 242.308,212.007 244.323 C 210.671 246.330,194.231 246.949,192.456 245.060 L 191.572 244.119 191.686 228.760 C 191.823 210.321,191.662 210.947,196.314 210.684 C 202.591 210.328,235.436 210.646,236.600 211.073 M149.021 267.619 C 148.153 268.053,147.343 268.555,147.221 268.736 C 147.100 268.918,146.028 269.411,144.839 269.833 C 143.086 270.455,142.383 271.000,141.111 272.722 C 140.248 273.888,139.117 275.037,138.596 275.274 C 137.670 275.697,136.354 278.352,135.759 281.000 C 135.611 281.660,135.361 282.380,135.203 282.600 C 134.046 284.213,134.056 287.725,135.224 290.200 C 135.432 290.640,136.015 292.170,136.519 293.600 C 137.208 295.554,137.751 296.399,138.703 297.000 C 139.399 297.440,139.976 297.993,139.985 298.228 C 140.005 298.796,142.166 301.200,142.656 301.200 C 143.377 301.200,145.194 302.199,145.202 302.600 C 145.253 305.151,157.409 305.799,160.286 303.405 C 160.553 303.182,161.003 302.812,161.286 302.583 C 161.569 302.353,162.820 301.584,164.067 300.872 C 166.055 299.738,166.517 299.223,167.816 296.689 C 168.630 295.100,169.508 293.530,169.766 293.200 C 171.298 291.239,171.402 290.448,171.306 281.461 C 171.147 266.539,171.364 266.796,159.000 266.817 C 151.463 266.830,150.438 266.913,149.021 267.619 M167.000 269.836 C 169.474 271.129,169.587 271.604,169.594 280.711 L 169.600 288.823 168.173 291.911 C 165.907 296.817,165.863 296.894,164.566 298.199 C 163.887 298.883,162.311 299.941,161.064 300.551 C 159.817 301.161,158.497 301.960,158.131 302.326 C 156.620 303.837,148.707 303.419,146.893 301.733 C 146.292 301.174,145.161 300.461,144.380 300.147 C 143.599 299.834,142.699 299.187,142.380 298.710 C 142.061 298.233,141.059 297.023,140.153 296.022 C 136.314 291.776,135.659 284.871,138.480 278.379 C 138.915 277.378,139.791 276.209,140.427 275.782 C 141.064 275.354,141.784 274.521,142.029 273.931 C 143.732 269.817,161.415 266.918,167.000 269.836 " stroke="none" fill="#f4dc74" fill-rule="evenodd"></path></g></svg>