<?xml version="1.0" encoding="utf-8"?>
<!-- Generator: Adobe Illustrator 25.4.1, SVG Export Plug-In . SVG Version: 6.00 Build 0)  -->
<svg version="1.1" id="logo" xmlns="http://www.w3.org/2000/svg" xmlns:xlink="http://www.w3.org/1999/xlink" x="0px" y="0px"
	 viewBox="0 0 96 96" style="enable-background:new 0 0 96 96;" xml:space="preserve">
<style type="text/css">
	.st0{fill-rule:evenodd;clip-rule:evenodd;fill:url(#SVGID_1_);}
</style>
<linearGradient id="SVGID_1_" gradientUnits="userSpaceOnUse" x1="4.1815" y1="6.1565" x2="91.8185" y2="93.7935" gradientTransform="matrix(1 0 0 -1 0 98)">
	<stop  offset="0" style="stop-color:#9945FF"/>
	<stop  offset="0.2" style="stop-color:#7962E7"/>
	<stop  offset="1" style="stop-color:#00D18C"/>
</linearGradient>
<path class="st0" d="M17.4,70.1c0.6-0.7,1.5-1,2.4-1l73.3,0.1c0.9,0,1.6,0.7,1.6,1.6c0,0.4-0.2,0.8-0.4,1.1L78.6,89
	c-0.6,0.7-1.5,1-2.4,1L2.9,89.9c-0.9,0-1.6-0.7-1.6-1.6c0-0.4,0.2-0.8,0.4-1.1L17.4,70.1z M94.2,55.7c0.6,0.7,0.6,1.7-0.1,2.3
	c-0.3,0.3-0.7,0.4-1.1,0.4l-73.3,0.1c-0.9,0-1.8-0.3-2.4-1L1.8,40.3c-0.6-0.7-0.6-1.7,0.1-2.3c0.3-0.3,0.7-0.4,1.1-0.4l73.3-0.1
	c0.9,0,1.8,0.3,2.4,1L94.2,55.7z M17.4,7.1c0.6-0.7,1.5-1,2.4-1l73.3,0.1c0.9,0,1.6,0.7,1.6,1.6c0,0.4-0.2,0.8-0.4,1.1L78.6,26
	c-0.6,0.7-1.5,1-2.4,1L2.9,26.9c-0.9,0-1.6-0.7-1.6-1.6c0-0.4,0.2-0.8,0.4-1.1L17.4,7.1z"/>
</svg>
